<?xml version="1.0" encoding="UTF-8"?>
<!DOCTYPE svg PUBLIC "-//W3C//DTD SVG 1.1//EN" "http://www.w3.org/Graphics/SVG/1.1/DTD/svg11.dtd">
<svg xmlns="http://www.w3.org/2000/svg" version="1.1" width="1012px" height="793px" style="shape-rendering:geometricPrecision; text-rendering:geometricPrecision; image-rendering:optimizeQuality; fill-rule:evenodd; clip-rule:evenodd" xmlns:xlink="http://www.w3.org/1999/xlink">
<g><path style="opacity:1" fill="#fefefe" d="M -0.5,-0.5 C 336.833,-0.5 674.167,-0.5 1011.5,-0.5C 1011.5,263.833 1011.5,528.167 1011.5,792.5C 674.167,792.5 336.833,792.5 -0.5,792.5C -0.5,528.167 -0.5,263.833 -0.5,-0.5 Z"/></g>
<g><path style="opacity:1" fill="#efefef" d="M 51.5,181.5 C 51.5,182.167 51.1667,182.5 50.5,182.5C 50.5,150.5 50.5,118.5 50.5,86.5C 153.167,86.5 255.833,86.5 358.5,86.5C 359.04,66.7528 359.373,47.0862 359.5,27.5C 357.167,27.5 354.833,27.5 352.5,27.5C 352.5,25.5 352.5,23.5 352.5,21.5C 251.763,21.1691 151.096,21.5024 50.5,22.5C 50.44,21.9569 50.1067,21.6236 49.5,21.5C 48.5344,23.396 48.2011,25.396 48.5,27.5C 43.8333,27.5 39.1667,27.5 34.5,27.5C 34.189,20.9102 34.5223,14.4102 35.5,8C 147.5,7.5 259.5,7.33333 371.5,7.5C 371.5,61.1667 371.5,114.833 371.5,168.5C 365.167,168.5 358.833,168.5 352.5,168.5C 352.5,141.5 352.5,114.5 352.5,87.5C 350.833,87.5 349.167,87.5 347.5,87.5C 347.5,114.167 347.5,140.833 347.5,167.5C 346.5,167.5 345.5,167.5 344.5,167.5C 344.5,140.833 344.5,114.167 344.5,87.5C 246.833,87.5 149.167,87.5 51.5,87.5C 51.5,118.833 51.5,150.167 51.5,181.5 Z"/></g>
<g><path style="opacity:1" fill="#ececec" d="M 50.5,22.5 C 50.5,24.1667 50.5,25.8333 50.5,27.5C 151.167,27.5 251.833,27.5 352.5,27.5C 354.833,27.5 357.167,27.5 359.5,27.5C 359.373,47.0862 359.04,66.7528 358.5,86.5C 255.833,86.5 153.167,86.5 50.5,86.5C 50.5,118.5 50.5,150.5 50.5,182.5C 45.1929,187.472 39.8595,192.472 34.5,197.5C 34.8332,160.827 34.4999,124.161 33.5,87.5C 32.7412,80.6698 32.0745,73.8364 31.5,67C 31.5,61 31.5,55 31.5,49C 31.7419,41.4462 32.7419,34.2796 34.5,27.5C 39.1667,27.5 43.8333,27.5 48.5,27.5C 48.2011,25.396 48.5344,23.396 49.5,21.5C 50.1067,21.6236 50.44,21.9569 50.5,22.5 Z"/></g>
<g><path style="opacity:1" fill="#fafafa" d="M 352.5,27.5 C 251.833,27.5 151.167,27.5 50.5,27.5C 50.5,25.8333 50.5,24.1667 50.5,22.5C 151.096,21.5024 251.763,21.1691 352.5,21.5C 352.5,23.5 352.5,25.5 352.5,27.5 Z"/></g>
<g><path style="opacity:1" fill="#ebebeb" d="M 733.5,349.5 C 732.778,341.666 730.444,334.333 726.5,327.5C 727.167,326.833 727.833,326.167 728.5,325.5C 727.333,323.167 726.167,320.833 725,318.5C 724.329,317.748 723.496,317.414 722.5,317.5C 722.058,296.027 723.558,274.693 727,253.5C 734.383,246.116 741.049,238.116 747,229.5C 747.497,226.854 747.664,224.187 747.5,221.5C 763.94,211.569 778.44,199.235 791,184.5C 794.411,180.097 795.911,175.097 795.5,169.5C 793.688,152.231 788.188,136.231 779,121.5C 779.132,115.507 779.132,109.507 779,103.5C 776.793,100.922 774.96,98.0887 773.5,95C 770.298,95.0863 767.298,96.0863 764.5,98C 763.028,108.43 764.861,118.263 770,127.5C 772.824,138.463 775.491,149.463 778,160.5C 778.667,164.167 778.667,167.833 778,171.5C 767.454,182.893 755.621,192.559 742.5,200.5C 741.566,199.432 741.232,198.099 741.5,196.5C 731.485,197.683 721.485,198.516 711.5,199C 711.167,198.667 710.833,198.333 710.5,198C 713.222,194.857 712.889,192.357 709.5,190.5C 708.516,187.572 708.183,184.572 708.5,181.5C 705.5,181.5 702.5,181.5 699.5,181.5C 699.5,178.5 699.5,175.5 699.5,172.5C 699.5,171.5 699.5,170.5 699.5,169.5C 707.689,165.317 714.356,159.317 719.5,151.5C 725.256,153.25 730.59,152.417 735.5,149C 742.882,142.73 747.548,134.896 749.5,125.5C 749.153,120.012 746.487,116.512 741.5,115C 745.525,120.562 745.192,125.896 740.5,131C 738.833,131.667 737.167,131.667 735.5,131C 730.807,125.344 729.307,118.844 731,111.5C 733.999,103.844 736.166,96.0111 737.5,88C 737.756,80.24 734.089,75.24 726.5,73C 713.667,68.6701 703.334,71.8367 695.5,82.5C 690.014,85.1224 686.681,89.4557 685.5,95.5C 676.476,95.3584 667.476,95.6917 658.5,96.5C 652.514,94.9864 647.181,96.4864 642.5,101C 643.094,101.464 643.761,101.631 644.5,101.5C 638.438,107.975 636.105,115.642 637.5,124.5C 641.846,124.334 646.179,124.501 650.5,125C 651.252,125.671 651.586,126.504 651.5,127.5C 651.5,127.833 651.5,128.167 651.5,128.5C 650.325,128.281 649.325,128.614 648.5,129.5C 648.957,130.298 649.624,130.631 650.5,130.5C 650.5,133.5 650.5,136.5 650.5,139.5C 647.952,141.038 647.952,142.704 650.5,144.5C 650.5,145.833 650.5,147.167 650.5,148.5C 648.98,150.89 647.98,153.557 647.5,156.5C 648.833,156.5 650.167,156.5 651.5,156.5C 652.916,162.083 654.916,167.417 657.5,172.5C 655.002,171.088 652.336,169.921 649.5,169C 627.663,168.171 605.996,168.337 584.5,169.5C 579.897,167.189 579.397,164.189 583,160.5C 593.022,150.253 604.188,141.586 616.5,134.5C 624.518,136.034 629.685,132.701 632,124.5C 632.667,107.167 632.667,89.8333 632,72.5C 630.141,67.9743 626.974,64.8077 622.5,63C 602.169,62.5 581.836,62.3334 561.5,62.5C 561.5,86.8333 561.5,111.167 561.5,135.5C 570.833,135.5 580.167,135.5 589.5,135.5C 581.585,140.063 574.418,145.73 568,152.5C 564.164,157.515 562.664,163.182 563.5,169.5C 534.574,168.509 505.574,168.175 476.5,168.5C 475.787,128.168 475.62,87.8346 476,47.5C 478.833,36.6667 485.667,29.8333 496.5,27C 517.497,26.5 538.497,26.3334 559.5,26.5C 559.215,24.712 559.548,23.0453 560.5,21.5C 561.429,22.6888 561.762,24.0222 561.5,25.5C 703.167,24.6875 844.833,24.1875 986.5,24C 997.54,27.705 1004.37,35.205 1007,46.5C 1008.15,140.165 1008.48,233.831 1008,327.5C 1004.73,337.774 997.894,344.274 987.5,347C 902.838,348.238 818.172,349.071 733.5,349.5 Z"/></g>
<g><path style="opacity:1" fill="#fefefe" d="M 928.5,60.5 C 959.05,60.8794 972.884,76.2127 970,106.5C 962.177,127.834 947.01,136.334 924.5,132C 903.07,123.644 894.903,108.144 900,85.5C 905.359,72.2996 914.859,63.9662 928.5,60.5 Z"/></g>
<g><path style="opacity:1" fill="#fefefe" d="M 616.5,134.5 C 624.269,126.753 626.602,117.42 623.5,106.5C 620.41,105.269 617.243,104.269 614,103.5C 612.265,104.682 611.265,106.349 611,108.5C 609.656,114.876 608.156,121.209 606.5,127.5C 600.686,129.907 595.02,132.574 589.5,135.5C 580.167,135.5 570.833,135.5 561.5,135.5C 561.5,111.167 561.5,86.8333 561.5,62.5C 581.836,62.3334 602.169,62.5 622.5,63C 626.974,64.8077 630.141,67.9743 632,72.5C 632.667,89.8333 632.667,107.167 632,124.5C 629.685,132.701 624.518,136.034 616.5,134.5 Z"/></g>
<g><path style="opacity:1" fill="#fefefe" d="M 522.5,62.5 C 534.833,62.5 547.167,62.5 559.5,62.5C 559.5,86.8333 559.5,111.167 559.5,135.5C 546.496,135.667 533.496,135.5 520.5,135C 516.942,133.108 514.442,130.275 513,126.5C 512.333,108.167 512.333,89.8333 513,71.5C 515.406,67.5915 518.572,64.5915 522.5,62.5 Z"/></g>
<g><path style="opacity:1" fill="#1b2e35" d="M 699.5,169.5 C 689.753,173.715 681.586,171.715 675,163.5C 671.694,158.554 669.194,153.221 667.5,147.5C 670,139.988 667.333,136.488 659.5,137C 656.696,133.855 654.03,130.688 651.5,127.5C 651.586,126.504 651.252,125.671 650.5,125C 646.179,124.501 641.846,124.334 637.5,124.5C 636.105,115.642 638.438,107.975 644.5,101.5C 648.963,99.219 653.63,97.5523 658.5,96.5C 667.476,95.6917 676.476,95.3584 685.5,95.5C 684.717,111.714 692.384,120.381 708.5,121.5C 708.66,119.801 708.494,118.134 708,116.5C 703.62,111.789 699.62,106.789 696,101.5C 692.98,95.1879 692.813,88.8545 695.5,82.5C 703.334,71.8367 713.667,68.6701 726.5,73C 734.089,75.24 737.756,80.24 737.5,88C 736.166,96.0111 733.999,103.844 731,111.5C 729.307,118.844 730.807,125.344 735.5,131C 737.167,131.667 738.833,131.667 740.5,131C 745.192,125.896 745.525,120.562 741.5,115C 746.487,116.512 749.153,120.012 749.5,125.5C 747.548,134.896 742.882,142.73 735.5,149C 730.59,152.417 725.256,153.25 719.5,151.5C 714.356,159.317 707.689,165.317 699.5,169.5 Z"/></g>
<g><path style="opacity:1" fill="#b37357" d="M 695.5,82.5 C 692.813,88.8545 692.98,95.1879 696,101.5C 699.62,106.789 703.62,111.789 708,116.5C 708.494,118.134 708.66,119.801 708.5,121.5C 692.384,120.381 684.717,111.714 685.5,95.5C 686.681,89.4557 690.014,85.1224 695.5,82.5 Z"/></g>
<g><path style="opacity:1" fill="#feb671" d="M 747.5,221.5 C 745.262,214.755 743.596,207.755 742.5,200.5C 755.621,192.559 767.454,182.893 778,171.5C 778.667,167.833 778.667,164.167 778,160.5C 775.491,149.463 772.824,138.463 770,127.5C 764.861,118.263 763.028,108.43 764.5,98C 767.298,96.0863 770.298,95.0863 773.5,95C 774.96,98.0887 776.793,100.922 779,103.5C 779.132,109.507 779.132,115.507 779,121.5C 788.188,136.231 793.688,152.231 795.5,169.5C 795.911,175.097 794.411,180.097 791,184.5C 778.44,199.235 763.94,211.569 747.5,221.5 Z"/></g>
<g><path style="opacity:1" fill="#546267" d="M 658.5,96.5 C 653.63,97.5523 648.963,99.219 644.5,101.5C 643.761,101.631 643.094,101.464 642.5,101C 647.181,96.4864 652.514,94.9864 658.5,96.5 Z"/></g>
<g><path style="opacity:1" fill="#feb671" d="M 616.5,134.5 C 604.188,141.586 593.022,150.253 583,160.5C 579.397,164.189 579.897,167.189 584.5,169.5C 588.558,172.89 592.891,175.89 597.5,178.5C 604.478,182.992 611.812,186.992 619.5,190.5C 620.31,198.007 619.644,205.34 617.5,212.5C 609.04,208.102 600.707,203.436 592.5,198.5C 592.167,198.5 591.833,198.5 591.5,198.5C 587.349,195.197 583.015,192.03 578.5,189C 574.333,185.936 570.667,182.436 567.5,178.5C 565.399,175.873 564.066,172.873 563.5,169.5C 562.664,163.182 564.164,157.515 568,152.5C 574.418,145.73 581.585,140.063 589.5,135.5C 595.02,132.574 600.686,129.907 606.5,127.5C 608.156,121.209 609.656,114.876 611,108.5C 611.265,106.349 612.265,104.682 614,103.5C 617.243,104.269 620.41,105.269 623.5,106.5C 626.602,117.42 624.269,126.753 616.5,134.5 Z"/></g>
<g><path style="opacity:1" fill="#46555b" d="M 640.5,102.5 C 641.043,102.56 641.376,102.893 641.5,103.5C 637.703,107.764 635.536,112.764 635,118.5C 634.343,112.305 636.176,106.971 640.5,102.5 Z"/></g>
<g><path style="opacity:1" fill="#485457" d="M 651.5,128.5 C 651.672,129.492 651.338,130.158 650.5,130.5C 649.624,130.631 648.957,130.298 648.5,129.5C 649.325,128.614 650.325,128.281 651.5,128.5 Z"/></g>
<g><path style="opacity:1" fill="#fcb46f" d="M 651.5,127.5 C 654.03,130.688 656.696,133.855 659.5,137C 667.333,136.488 670,139.988 667.5,147.5C 669.194,153.221 671.694,158.554 675,163.5C 681.586,171.715 689.753,173.715 699.5,169.5C 699.5,170.5 699.5,171.5 699.5,172.5C 698.523,175.287 698.19,178.287 698.5,181.5C 691.628,181.941 684.962,183.274 678.5,185.5C 678.5,183.833 678.5,182.167 678.5,180.5C 670.09,181.366 663.09,178.699 657.5,172.5C 654.916,167.417 652.916,162.083 651.5,156.5C 651.425,153.794 651.092,151.127 650.5,148.5C 650.5,147.167 650.5,145.833 650.5,144.5C 650.5,142.833 650.5,141.167 650.5,139.5C 650.5,136.5 650.5,133.5 650.5,130.5C 651.338,130.158 651.672,129.492 651.5,128.5C 651.5,128.167 651.5,127.833 651.5,127.5 Z"/></g>
<g><path style="opacity:1" fill="#565956" d="M 650.5,139.5 C 650.5,141.167 650.5,142.833 650.5,144.5C 647.952,142.704 647.952,141.038 650.5,139.5 Z"/></g>
<g><path style="opacity:1" fill="#fe6158" d="M 650.5,148.5 C 651.092,151.127 651.425,153.794 651.5,156.5C 650.167,156.5 648.833,156.5 647.5,156.5C 647.98,153.557 648.98,150.89 650.5,148.5 Z"/></g>
<g><path style="opacity:1" fill="#a6e1e0" d="M 167.5,178.5 C 155.066,178.04 142.733,178.54 130.5,180C 126.279,183.822 125.446,188.322 128,193.5C 129.777,195.79 131.944,197.457 134.5,198.5C 286.664,198.596 438.997,198.596 591.5,198.5C 591.833,198.5 592.167,198.5 592.5,198.5C 459.334,199.333 326.001,199.833 192.5,200C 215.107,229.807 220.607,262.641 209,298.5C 204.364,311.118 197.697,322.451 189,332.5C 186.564,335.447 183.731,337.78 180.5,339.5C 176.229,335.025 171.229,331.525 165.5,329C 159.386,327.805 153.386,326.305 147.5,324.5C 144.546,323.729 141.546,323.062 138.5,322.5C 128.847,319.83 124.847,313.496 126.5,303.5C 126.971,301.421 127.637,299.421 128.5,297.5C 144.004,297.805 154.504,290.805 160,276.5C 160.731,268.798 160.564,261.131 159.5,253.5C 160.767,254.087 161.767,254.087 162.5,253.5C 161.237,251.971 160.237,250.305 159.5,248.5C 163.139,247.732 162.806,247.066 158.5,246.5C 156.967,242.567 155.633,238.567 154.5,234.5C 155.239,234.631 155.906,234.464 156.5,234C 155.272,233.221 154.272,232.221 153.5,231C 151.525,225.034 148.692,219.534 145,214.5C 141.731,211.117 137.897,208.617 133.5,207C 128.552,205.744 123.552,204.744 118.5,204C 117.62,202.644 117.286,201.144 117.5,199.5C 117.334,193.158 117.5,186.825 118,180.5C 119.738,176.759 122.238,173.592 125.5,171C 119.996,173.194 116.496,177.36 115,183.5C 114.503,186.146 114.336,188.813 114.5,191.5C 104.406,178.406 91.0726,173.24 74.5,176C 54.0799,182.436 43.4132,196.436 42.5,218C 43.1265,224.844 43.7932,231.677 44.5,238.5C 45.5931,245.45 45.7598,252.45 45,259.5C 43.7555,263.542 42.7555,267.542 42,271.5C 45.5966,264.097 47.7633,256.431 48.5,248.5C 50.1387,258.738 47.6387,267.738 41,275.5C 40.6667,274.833 40.3333,274.167 40,273.5C 37.5,278.667 33.6667,282.5 28.5,285C 24.2688,289.062 20.2688,293.229 16.5,297.5C 4.80904,260.979 10.809,227.646 34.5,197.5C 39.8595,192.472 45.1929,187.472 50.5,182.5C 51.1667,182.5 51.5,182.167 51.5,181.5C 82.2381,160.822 115.238,156.655 150.5,169C 156.552,171.687 162.219,174.854 167.5,178.5 Z"/></g>
<g><path style="opacity:1" fill="#fcfcfb" d="M 584.5,169.5 C 605.996,168.337 627.663,168.171 649.5,169C 652.336,169.921 655.002,171.088 657.5,172.5C 663.09,178.699 670.09,181.366 678.5,180.5C 678.5,182.167 678.5,183.833 678.5,185.5C 672.981,186.887 667.981,189.22 663.5,192.5C 661.673,194.487 660.673,196.821 660.5,199.5C 657.287,199.81 654.287,199.477 651.5,198.5C 655.713,193.775 656.547,188.442 654,182.5C 652.59,181.213 651.09,180.046 649.5,179C 632.17,178.5 614.837,178.333 597.5,178.5C 592.891,175.89 588.558,172.89 584.5,169.5 Z"/></g>
<g><path style="opacity:1" fill="#1b2f36" d="M 114.5,191.5 C 115.129,194.397 116.129,197.064 117.5,199.5C 117.286,201.144 117.62,202.644 118.5,204C 123.552,204.744 128.552,205.744 133.5,207C 137.897,208.617 141.731,211.117 145,214.5C 148.692,219.534 151.525,225.034 153.5,231C 154.272,232.221 155.272,233.221 156.5,234C 155.906,234.464 155.239,234.631 154.5,234.5C 151.753,234.813 149.086,234.48 146.5,233.5C 148.5,232.833 150.5,232.167 152.5,231.5C 150.823,228.147 148.657,225.147 146,222.5C 143.519,226.314 140.019,228.481 135.5,229C 127.169,230.586 118.835,231.92 110.5,233C 109.02,234.299 108.354,235.966 108.5,238C 109.768,244.843 109.768,251.677 108.5,258.5C 109.189,260.353 110.522,261.519 112.5,262C 111.167,262.333 109.833,262.667 108.5,263C 110.332,264.489 111.165,266.322 111,268.5C 109.421,266.959 107.587,265.792 105.5,265C 102.859,258.682 98.1927,256.015 91.5,257C 86.6216,261.207 86.2883,265.707 90.5,270.5C 85.1496,276.522 80.1496,282.855 75.5,289.5C 70.4096,295.005 68.9096,301.338 71,308.5C 72.5087,310.881 74.6753,311.881 77.5,311.5C 81.4527,311.027 85.1193,309.693 88.5,307.5C 92.1069,310.386 94.4402,314.052 95.5,318.5C 91.6286,318.185 87.9619,318.518 84.5,319.5C 77.9386,318.919 71.6053,319.752 65.5,322C 58.2165,327.781 51.8831,334.281 46.5,341.5C 32.1776,329.833 22.1776,315.167 16.5,297.5C 20.2688,293.229 24.2688,289.062 28.5,285C 33.6667,282.5 37.5,278.667 40,273.5C 40.3333,274.167 40.6667,274.833 41,275.5C 47.6387,267.738 50.1387,258.738 48.5,248.5C 47.9899,244.116 47.1566,239.782 46,235.5C 45.7679,236.737 45.2679,237.737 44.5,238.5C 43.7932,231.677 43.1265,224.844 42.5,218C 43.4132,196.436 54.0799,182.436 74.5,176C 91.0726,173.24 104.406,178.406 114.5,191.5 Z"/></g>
<g><path style="opacity:1" fill="#27877a" d="M 117.5,199.5 C 116.129,197.064 115.129,194.397 114.5,191.5C 114.336,188.813 114.503,186.146 115,183.5C 116.496,177.36 119.996,173.194 125.5,171C 122.238,173.592 119.738,176.759 118,180.5C 117.5,186.825 117.334,193.158 117.5,199.5 Z"/></g>
<g><path style="opacity:1" fill="#44c1be" d="M 167.5,178.5 C 168.167,178.5 168.833,178.5 169.5,178.5C 171.806,180.139 173.806,182.139 175.5,184.5C 172.914,187.293 172.914,190.126 175.5,193C 178.614,194.087 180.947,193.254 182.5,190.5C 185.931,192.095 188.598,194.595 190.5,198C 171.836,198.5 153.17,198.667 134.5,198.5C 131.944,197.457 129.777,195.79 128,193.5C 125.446,188.322 126.279,183.822 130.5,180C 142.733,178.54 155.066,178.04 167.5,178.5 Z"/></g>
<g><path style="opacity:1" fill="#64cbc8" d="M 169.5,178.5 C 302.167,178.5 434.833,178.5 567.5,178.5C 570.667,182.436 574.333,185.936 578.5,189C 583.015,192.03 587.349,195.197 591.5,198.5C 438.997,198.596 286.664,198.596 134.5,198.5C 153.17,198.667 171.836,198.5 190.5,198C 188.598,194.595 185.931,192.095 182.5,190.5C 182.462,185.444 180.128,183.444 175.5,184.5C 173.806,182.139 171.806,180.139 169.5,178.5 Z"/></g>
<g><path style="opacity:1" fill="#67ccc8" d="M 597.5,178.5 C 614.837,178.333 632.17,178.5 649.5,179C 651.09,180.046 652.59,181.213 654,182.5C 656.547,188.442 655.713,193.775 651.5,198.5C 642.137,194.878 632.637,191.545 623,188.5C 621.923,189.429 620.756,190.096 619.5,190.5C 611.812,186.992 604.478,182.992 597.5,178.5 Z"/></g>
<g><path style="opacity:1" fill="#f9eed9" d="M 699.5,172.5 C 699.5,175.5 699.5,178.5 699.5,181.5C 702.5,181.5 705.5,181.5 708.5,181.5C 708.183,184.572 708.516,187.572 709.5,190.5C 712.889,192.357 713.222,194.857 710.5,198C 710.833,198.333 711.167,198.667 711.5,199C 721.485,198.516 731.485,197.683 741.5,196.5C 741.232,198.099 741.566,199.432 742.5,200.5C 743.596,207.755 745.262,214.755 747.5,221.5C 747.664,224.187 747.497,226.854 747,229.5C 741.049,238.116 734.383,246.116 727,253.5C 723.558,274.693 722.058,296.027 722.5,317.5C 720.167,317.5 717.833,317.5 715.5,317.5C 715.833,320.833 716.167,324.167 716.5,327.5C 715.167,327.5 713.833,327.5 712.5,327.5C 712.784,324.223 712.451,321.057 711.5,318C 695.17,317.5 678.837,317.333 662.5,317.5C 663.051,320.807 663.384,324.14 663.5,327.5C 662.167,327.5 660.833,327.5 659.5,327.5C 659.5,324.167 659.5,320.833 659.5,317.5C 653.5,317.5 647.5,317.5 641.5,317.5C 638.253,293.194 635.087,268.86 632,244.5C 626.623,238.792 621.623,232.792 617,226.5C 617.124,221.864 617.29,217.198 617.5,212.5C 619.644,205.34 620.31,198.007 619.5,190.5C 620.756,190.096 621.923,189.429 623,188.5C 632.637,191.545 642.137,194.878 651.5,198.5C 654.287,199.477 657.287,199.81 660.5,199.5C 660.673,196.821 661.673,194.487 663.5,192.5C 667.981,189.22 672.981,186.887 678.5,185.5C 684.962,183.274 691.628,181.941 698.5,181.5C 698.19,178.287 698.523,175.287 699.5,172.5 Z"/></g>
<g><path style="opacity:1" fill="#a0dedd" d="M 142.5,184.5 C 147.835,184.005 150.335,186.338 150,191.5C 145.464,194.742 142.298,193.742 140.5,188.5C 140.752,186.927 141.418,185.594 142.5,184.5 Z"/></g>
<g><path style="opacity:1" fill="#a1dedd" d="M 158.5,184.5 C 165.997,183.804 167.997,186.637 164.5,193C 157.781,193.726 155.781,190.893 158.5,184.5 Z"/></g>
<g><path style="opacity:1" fill="#ade2e1" d="M 182.5,190.5 C 180.947,193.254 178.614,194.087 175.5,193C 172.914,190.126 172.914,187.293 175.5,184.5C 180.128,183.444 182.462,185.444 182.5,190.5 Z"/></g>
<g><path style="opacity:1" fill="#ecf1ef" d="M 99.5,204.5 C 92.2214,206.207 86.7214,210.207 83,216.5C 82.502,219.482 82.3354,222.482 82.5,225.5C 81.5848,230.51 80.0848,230.51 78,225.5C 76.5976,220.025 77.931,215.358 82,211.5C 84.5,209 87,206.5 89.5,204C 93.0267,203.192 96.3601,203.359 99.5,204.5 Z"/></g>
<g><path style="opacity:1" fill="#0e834d" d="M 99.5,204.5 C 102.187,204.336 104.854,204.503 107.5,205C 99.4732,207.031 93.9732,211.864 91,219.5C 87.7323,220.942 84.899,222.942 82.5,225.5C 82.3354,222.482 82.502,219.482 83,216.5C 86.7214,210.207 92.2214,206.207 99.5,204.5 Z"/></g>
<g><path style="opacity:1" fill="#fcc2bc" d="M 154.5,234.5 C 155.633,238.567 156.967,242.567 158.5,246.5C 158.5,247.167 158.5,247.833 158.5,248.5C 158.366,250.292 158.699,251.958 159.5,253.5C 160.564,261.131 160.731,268.798 160,276.5C 154.504,290.805 144.004,297.805 128.5,297.5C 123.034,296.057 117.868,293.724 113,290.5C 114.6,297.597 119.1,301.931 126.5,303.5C 124.847,313.496 128.847,319.83 138.5,322.5C 140.971,326.356 141.138,330.356 139,334.5C 136.271,337.399 133.438,340.066 130.5,342.5C 129.167,342.5 127.833,342.5 126.5,342.5C 116.525,338.754 107.692,333.087 100,325.5C 98.295,323.423 97.1283,321.09 96.5,318.5C 99.6611,315.525 101.828,311.858 103,307.5C 104.243,301.89 105.076,296.224 105.5,290.5C 106.116,285.95 104.949,281.95 102,278.5C 97.9529,276.219 94.1196,273.553 90.5,270.5C 86.2883,265.707 86.6216,261.207 91.5,257C 98.1927,256.015 102.859,258.682 105.5,265C 107.587,265.792 109.421,266.959 111,268.5C 111.165,266.322 110.332,264.489 108.5,263C 109.833,262.667 111.167,262.333 112.5,262C 110.522,261.519 109.189,260.353 108.5,258.5C 109.768,251.677 109.768,244.843 108.5,238C 108.354,235.966 109.02,234.299 110.5,233C 118.835,231.92 127.169,230.586 135.5,229C 140.019,228.481 143.519,226.314 146,222.5C 148.657,225.147 150.823,228.147 152.5,231.5C 150.5,232.167 148.5,232.833 146.5,233.5C 149.086,234.48 151.753,234.813 154.5,234.5 Z"/></g>
<g><path style="opacity:1" fill="#ebecec" d="M 301.5,288.5 C 303.641,291.472 306.308,293.972 309.5,296C 313.934,297.383 318.268,299.05 322.5,301C 337.598,303.665 348.932,298.498 356.5,285.5C 362.04,276.807 363.706,267.473 361.5,257.5C 359.054,243.55 351.054,234.384 337.5,230C 324.973,227.381 313.973,230.214 304.5,238.5C 303.833,238.5 303.167,238.5 302.5,238.5C 307.588,232.951 313.922,229.451 321.5,228C 350.898,226.736 366.232,240.736 367.5,270C 360.026,298.101 342.026,308.767 313.5,302C 309.143,299.171 305.31,295.671 302,291.5C 301.517,290.552 301.351,289.552 301.5,288.5 Z"/></g>
<g><path style="opacity:1" fill="#134734" d="M 361.5,257.5 C 361.562,284.271 348.228,296.771 321.5,295C 303.424,289.73 294.758,277.563 295.5,258.5C 296.339,250.825 299.339,244.159 304.5,238.5C 313.973,230.214 324.973,227.381 337.5,230C 351.054,234.384 359.054,243.55 361.5,257.5 Z"/></g>
<g><path style="opacity:1" fill="#353f44" d="M 121.5,236.5 C 122.873,236.343 124.207,236.51 125.5,237C 122.421,238.248 119.754,240.081 117.5,242.5C 116.479,241.998 116.312,241.332 117,240.5C 118.397,238.93 119.897,237.596 121.5,236.5 Z"/></g>
<g><path style="opacity:1" fill="#dbf3ec" d="M 302.5,238.5 C 303.167,238.5 303.833,238.5 304.5,238.5C 299.339,244.159 296.339,250.825 295.5,258.5C 294.461,264.691 294.627,271.025 296,277.5C 297.396,280.064 298.563,282.731 299.5,285.5C 287.091,285.939 274.758,285.439 262.5,284C 248.329,275.816 244.829,264.316 252,249.5C 255.315,245.182 259.481,242.015 264.5,240C 277.092,238.559 289.759,238.059 302.5,238.5 Z"/></g>
<g><path style="opacity:1" fill="#323d42" d="M 153.5,240.5 C 154.239,240.369 154.906,240.536 155.5,241C 154.565,243.381 154.232,245.881 154.5,248.5C 151.879,248.523 150.545,247.189 150.5,244.5C 150.787,242.557 151.787,241.223 153.5,240.5 Z"/></g>
<g><path style="opacity:1" fill="#fefefe" d="M 873.5,241.5 C 905.502,241.333 937.502,241.5 969.5,242C 970,242.5 970.5,243 971,243.5C 971.667,250.833 971.667,258.167 971,265.5C 970.5,266 970,266.5 969.5,267C 937.167,267.667 904.833,267.667 872.5,267C 872,266.5 871.5,266 871,265.5C 870.333,258.5 870.333,251.5 871,244.5C 872.045,243.627 872.878,242.627 873.5,241.5 Z"/></g>
<g><path style="opacity:1" fill="#fefefe" d="M 754.5,242.5 C 786.502,242.333 818.502,242.5 850.5,243C 851,243.5 851.5,244 852,244.5C 852.667,251.833 852.667,259.167 852,266.5C 851.25,267.126 850.416,267.626 849.5,268C 817.5,268.667 785.5,268.667 753.5,268C 753,267.5 752.5,267 752,266.5C 751.333,259.5 751.333,252.5 752,245.5C 752.698,244.309 753.531,243.309 754.5,242.5 Z"/></g>
<g><path style="opacity:1" fill="#364045" d="M 132.5,244.5 C 133.239,244.369 133.906,244.536 134.5,245C 134.182,247.042 134.015,249.209 134,251.5C 131.463,252.507 129.963,251.507 129.5,248.5C 130.286,246.959 131.286,245.626 132.5,244.5 Z"/></g>
<g><path style="opacity:1" fill="#1f343b" d="M 158.5,246.5 C 162.806,247.066 163.139,247.732 159.5,248.5C 159.167,248.5 158.833,248.5 158.5,248.5C 158.5,247.833 158.5,247.167 158.5,246.5 Z"/></g>
<g><path style="opacity:1" fill="#897d7e" d="M 158.5,248.5 C 158.833,248.5 159.167,248.5 159.5,248.5C 160.237,250.305 161.237,251.971 162.5,253.5C 161.767,254.087 160.767,254.087 159.5,253.5C 158.699,251.958 158.366,250.292 158.5,248.5 Z"/></g>
<g><path style="opacity:1" fill="#ff8a84" d="M 143.5,250.5 C 145.733,254.078 148.399,257.412 151.5,260.5C 149.977,262.283 147.977,262.949 145.5,262.5C 144.833,258.5 144.167,254.5 143.5,250.5 Z"/></g>
<g><path style="opacity:1" fill="#416065" d="M 48.5,248.5 C 47.7633,256.431 45.5966,264.097 42,271.5C 42.7555,267.542 43.7555,263.542 45,259.5C 45.7598,252.45 45.5931,245.45 44.5,238.5C 45.2679,237.737 45.7679,236.737 46,235.5C 47.1566,239.782 47.9899,244.116 48.5,248.5 Z"/></g>
<g><path style="opacity:1" fill="#665f62" d="M 126.5,267.5 C 126.56,266.957 126.893,266.624 127.5,266.5C 131.564,269.764 136.23,271.264 141.5,271C 135.854,272.324 130.854,271.157 126.5,267.5 Z"/></g>
<g><path style="opacity:1" fill="#a6e0df" d="M 90.5,270.5 C 94.1196,273.553 97.9529,276.219 102,278.5C 104.949,281.95 106.116,285.95 105.5,290.5C 95.3194,290.827 85.3194,290.494 75.5,289.5C 80.1496,282.855 85.1496,276.522 90.5,270.5 Z"/></g>
<g><path style="opacity:1" fill="#93cdcc" d="M 75.5,289.5 C 85.3194,290.494 95.3194,290.827 105.5,290.5C 105.076,296.224 104.243,301.89 103,307.5C 101.828,311.858 99.6611,315.525 96.5,318.5C 96.1667,318.5 95.8333,318.5 95.5,318.5C 94.4402,314.052 92.1069,310.386 88.5,307.5C 85.1193,309.693 81.4527,311.027 77.5,311.5C 74.6753,311.881 72.5087,310.881 71,308.5C 68.9096,301.338 70.4096,295.005 75.5,289.5 Z"/></g>
<g><path style="opacity:1" fill="#130f0f" d="M 128.5,297.5 C 127.637,299.421 126.971,301.421 126.5,303.5C 119.1,301.931 114.6,297.597 113,290.5C 117.868,293.724 123.034,296.057 128.5,297.5 Z"/></g>
<g><path style="opacity:1" fill="#cdcdcd" d="M 299.5,285.5 C 305.776,289.646 312.11,293.813 318.5,298C 326.375,300.012 334.208,299.845 342,297.5C 347.454,294.054 352.287,290.054 356.5,285.5C 348.932,298.498 337.598,303.665 322.5,301C 318.268,299.05 313.934,297.383 309.5,296C 306.308,293.972 303.641,291.472 301.5,288.5C 300.599,287.71 299.932,286.71 299.5,285.5 Z"/></g>
<g><path style="opacity:1" fill="#afb3b1" d="M 361.5,257.5 C 363.706,267.473 362.04,276.807 356.5,285.5C 352.287,290.054 347.454,294.054 342,297.5C 334.208,299.845 326.375,300.012 318.5,298C 312.11,293.813 305.776,289.646 299.5,285.5C 298.563,282.731 297.396,280.064 296,277.5C 294.627,271.025 294.461,264.691 295.5,258.5C 294.758,277.563 303.424,289.73 321.5,295C 348.228,296.771 361.562,284.271 361.5,257.5 Z"/></g>
<g><path style="opacity:1" fill="#605b64" d="M 314.5,314.5 C 315.5,314.5 316.5,314.5 317.5,314.5C 317.5,315.833 317.5,317.167 317.5,318.5C 316.5,318.5 315.5,318.5 314.5,318.5C 314.5,317.167 314.5,315.833 314.5,314.5 Z"/></g>
<g><path style="opacity:1" fill="#58535c" d="M 260.5,314.5 C 262.911,314.137 264.411,315.137 265,317.5C 268.069,325.54 271.235,333.54 274.5,341.5C 273.5,342.833 272.5,342.833 271.5,341.5C 270.253,339.677 269.586,337.677 269.5,335.5C 264.821,335.334 260.155,335.501 255.5,336C 254.76,337.785 254.093,339.618 253.5,341.5C 252.5,342.833 251.5,342.833 250.5,341.5C 254.125,332.588 257.458,323.588 260.5,314.5 Z"/></g>
<g><path style="opacity:1" fill="#605b63" d="M 301.5,317.5 C 302.5,317.5 303.5,317.5 304.5,317.5C 304.5,319.167 304.5,320.833 304.5,322.5C 306.5,322.5 308.5,322.5 310.5,322.5C 310.5,323.5 310.5,324.5 310.5,325.5C 308.5,325.5 306.5,325.5 304.5,325.5C 304.334,330.179 304.501,334.845 305,339.5C 306.825,340.103 308.659,340.77 310.5,341.5C 308.235,342.647 305.902,342.814 303.5,342C 302.874,341.25 302.374,340.416 302,339.5C 301.501,334.845 301.334,330.179 301.5,325.5C 300.167,325.5 298.833,325.5 297.5,325.5C 297.5,324.5 297.5,323.5 297.5,322.5C 298.833,322.5 300.167,322.5 301.5,322.5C 301.5,320.833 301.5,319.167 301.5,317.5 Z"/></g>
<g><path style="opacity:1" fill="#fdfdfc" d="M 95.5,318.5 C 95.8333,318.5 96.1667,318.5 96.5,318.5C 97.1283,321.09 98.295,323.423 100,325.5C 107.692,333.087 116.525,338.754 126.5,342.5C 125.833,342.5 125.5,342.833 125.5,343.5C 119.443,345.731 115.61,350.064 114,356.5C 105.332,350.332 97.8325,342.999 91.5,334.5C 87.2909,330.413 84.9575,325.413 84.5,319.5C 87.9619,318.518 91.6286,318.185 95.5,318.5 Z"/></g>
<g><path style="opacity:1" fill="#01573f" d="M 641.5,317.5 C 647.5,317.5 653.5,317.5 659.5,317.5C 659.5,320.833 659.5,324.167 659.5,327.5C 660.833,327.5 662.167,327.5 663.5,327.5C 663.384,324.14 663.051,320.807 662.5,317.5C 678.837,317.333 695.17,317.5 711.5,318C 712.451,321.057 712.784,324.223 712.5,327.5C 713.833,327.5 715.167,327.5 716.5,327.5C 716.167,324.167 715.833,320.833 715.5,317.5C 717.833,317.5 720.167,317.5 722.5,317.5C 723.496,317.414 724.329,317.748 725,318.5C 726.167,320.833 727.333,323.167 728.5,325.5C 727.833,326.167 727.167,326.833 726.5,327.5C 730.444,334.333 732.778,341.666 733.5,349.5C 733.666,356.841 733.5,364.174 733,371.5C 728.691,404.19 726.524,437.024 726.5,470C 727.814,509.52 729.647,549.02 732,588.5C 732.5,636.166 732.667,683.832 732.5,731.5C 733.833,731.5 735.167,731.5 736.5,731.5C 736.495,735.534 736.162,739.534 735.5,743.5C 732.833,743.5 730.167,743.5 727.5,743.5C 722.833,743.5 718.167,743.5 713.5,743.5C 716.433,741.355 719.433,739.188 722.5,737C 723.059,736.275 723.392,735.442 723.5,734.5C 719.753,729.247 715.42,724.414 710.5,720C 709.552,719.517 708.552,719.351 707.5,719.5C 706.592,716.013 704.926,713.013 702.5,710.5C 702.778,708.654 702.111,707.32 700.5,706.5C 694.622,708.942 688.955,711.608 683.5,714.5C 680.808,715.009 678.308,716.009 676,717.5C 674.213,713.423 672.046,709.59 669.5,706C 671.612,705.094 672.445,703.594 672,701.5C 643.078,649.054 619.411,594.387 601,537.5C 598.187,524.309 597.02,510.975 597.5,497.5C 600.112,467.36 605.779,437.693 614.5,408.5C 621.823,381.03 630.657,354.03 641,327.5C 640.557,324.008 640.724,320.675 641.5,317.5 Z"/></g>
<g><path style="opacity:1" fill="#c8c1a6" d="M 84.5,319.5 C 84.9575,325.413 87.2909,330.413 91.5,334.5C 90.5354,335.721 90.702,337.054 92,338.5C 97.9796,346.98 105.146,354.313 113.5,360.5C 116.597,353.577 121.263,348.077 127.5,344C 126.906,343.536 126.239,343.369 125.5,343.5C 125.5,342.833 125.833,342.5 126.5,342.5C 127.833,342.5 129.167,342.5 130.5,342.5C 131.492,342.328 132.158,342.662 132.5,343.5C 135.104,345.6 137.604,347.933 140,350.5C 141.504,353.509 143.004,356.509 144.5,359.5C 146.111,358.68 146.778,357.346 146.5,355.5C 147.222,355.918 147.722,356.584 148,357.5C 151.656,353.35 153.156,348.516 152.5,343C 152.333,340.5 152.167,338 152,335.5C 150.487,331.812 148.987,328.145 147.5,324.5C 153.386,326.305 159.386,327.805 165.5,329C 171.229,331.525 176.229,335.025 180.5,339.5C 166.108,352.862 149.108,361.195 129.5,364.5C 128.508,364.328 127.842,364.662 127.5,365.5C 125.833,365.5 124.167,365.5 122.5,365.5C 122.795,367.735 122.461,369.735 121.5,371.5C 121.799,369.396 121.466,367.396 120.5,365.5C 119.893,365.624 119.56,365.957 119.5,366.5C 115.833,366.5 112.167,366.5 108.5,366.5C 104.865,365.886 101.198,365.552 97.5,365.5C 90.9478,363.881 84.2811,362.215 77.5,360.5C 69.2472,356.706 61.2472,352.372 53.5,347.5C 51.1667,345.5 48.8333,343.5 46.5,341.5C 51.8831,334.281 58.2165,327.781 65.5,322C 71.6053,319.752 77.9386,318.919 84.5,319.5 Z"/></g>
<g><path style="opacity:1" fill="#ededee" d="M 261.5,318.5 C 264.648,322.923 266.648,327.923 267.5,333.5C 263.774,333.823 260.107,333.489 256.5,332.5C 258.744,328.017 260.411,323.351 261.5,318.5 Z"/></g>
<g><path style="opacity:1" fill="#5a555e" d="M 282.5,322.5 C 287.757,321.521 292.09,323.021 295.5,327C 293.765,328.985 292.432,328.651 291.5,326C 283.039,323.457 278.873,326.624 279,335.5C 283.183,341.362 288.183,342.028 294,337.5C 295.726,338.648 295.559,339.815 293.5,341C 281.45,345.625 275.95,341.458 277,328.5C 278.36,325.977 280.193,323.977 282.5,322.5 Z"/></g>
<g><path style="opacity:1" fill="#5d5861" d="M 347.5,322.5 C 359.79,321.449 364.29,326.782 361,338.5C 353.774,345.682 347.441,345.016 342,336.5C 340.349,330.36 342.182,325.694 347.5,322.5 Z"/></g>
<g><path style="opacity:1" fill="#fdfdfc" d="M 138.5,322.5 C 141.546,323.062 144.546,323.729 147.5,324.5C 148.987,328.145 150.487,331.812 152,335.5C 152.167,338 152.333,340.5 152.5,343C 153.156,348.516 151.656,353.35 148,357.5C 147.722,356.584 147.222,355.918 146.5,355.5C 143.99,348.99 139.323,344.99 132.5,343.5C 132.158,342.662 131.492,342.328 130.5,342.5C 133.438,340.066 136.271,337.399 139,334.5C 141.138,330.356 140.971,326.356 138.5,322.5 Z"/></g>
<g><path style="opacity:1" fill="#69646c" d="M 314.5,322.5 C 315.5,322.5 316.5,322.5 317.5,322.5C 317.5,329.167 317.5,335.833 317.5,342.5C 316.5,342.5 315.5,342.5 314.5,342.5C 314.5,335.833 314.5,329.167 314.5,322.5 Z"/></g>
<g><path style="opacity:1" fill="#5b575f" d="M 320.5,322.5 C 321.675,322.281 322.675,322.614 323.5,323.5C 325.576,328.651 327.91,333.651 330.5,338.5C 332.762,333.551 334.928,328.551 337,323.5C 337.893,322.289 338.726,322.289 339.5,323.5C 337.167,329.5 334.833,335.5 332.5,341.5C 331.167,342.833 329.833,342.833 328.5,341.5C 325.827,335.143 323.161,328.809 320.5,322.5 Z"/></g>
<g><path style="opacity:1" fill="#f9f9fa" d="M 349.5,324.5 C 357.696,324.529 360.863,328.529 359,336.5C 354.161,341.769 349.495,341.769 345,336.5C 343.309,331.131 344.809,327.131 349.5,324.5 Z"/></g>
<g><path style="opacity:1" fill="#a8e2e1" d="M 614.5,408.5 C 605.779,437.693 600.112,467.36 597.5,497.5C 597.631,496.761 597.464,496.094 597,495.5C 594.37,499.132 591.37,502.465 588,505.5C 581.629,492.795 571.796,483.962 558.5,479C 548.509,477.057 538.509,475.224 528.5,473.5C 526.194,473.007 523.861,472.674 521.5,472.5C 521.5,470.167 521.5,467.833 521.5,465.5C 521.5,463.5 521.5,461.5 521.5,459.5C 532.026,461.324 539.193,457.324 543,447.5C 543.805,440.471 544.638,433.471 545.5,426.5C 546.427,419.528 547.094,412.528 547.5,405.5C 548.458,405.953 549.292,406.619 550,407.5C 550.585,406.002 550.085,405.002 548.5,404.5C 548.5,403.833 548.5,403.167 548.5,402.5C 549.583,402.539 550.583,402.873 551.5,403.5C 552.653,400.447 551.987,397.78 549.5,395.5C 549.552,393.097 549.219,390.764 548.5,388.5C 556.97,389.181 563.803,386.181 569,379.5C 569.789,377.288 569.622,375.288 568.5,373.5C 565.357,367.576 560.357,364.076 553.5,363C 545.844,363.237 538.177,363.237 530.5,363C 502.374,352.476 485.874,361.976 481,391.5C 480.333,395.167 480.333,398.833 481,402.5C 483.34,408.019 485.173,413.686 486.5,419.5C 483.381,435.546 480.048,451.546 476.5,467.5C 473.833,467.5 471.167,467.5 468.5,467.5C 451.659,466.321 434.659,466.321 417.5,467.5C 403.789,415.778 419.122,375.278 463.5,346C 506.334,324.688 546.334,329.022 583.5,359C 597.542,373.267 607.876,389.767 614.5,408.5 Z"/></g>
<g><path style="opacity:1" fill="#a79a71" d="M 91.5,334.5 C 97.8325,342.999 105.332,350.332 114,356.5C 115.61,350.064 119.443,345.731 125.5,343.5C 126.239,343.369 126.906,343.536 127.5,344C 121.263,348.077 116.597,353.577 113.5,360.5C 105.146,354.313 97.9796,346.98 92,338.5C 90.702,337.054 90.5354,335.721 91.5,334.5 Z"/></g>
<g><path style="opacity:1" fill="#a5986e" d="M 132.5,343.5 C 139.323,344.99 143.99,348.99 146.5,355.5C 146.778,357.346 146.111,358.68 144.5,359.5C 143.004,356.509 141.504,353.509 140,350.5C 137.604,347.933 135.104,345.6 132.5,343.5 Z"/></g>
<g><path style="opacity:1" fill="#e1e0e0" d="M 53.5,347.5 C 61.2472,352.372 69.2472,356.706 77.5,360.5C 69.1667,360.5 60.8333,360.5 52.5,360.5C 52.9272,356.176 53.2605,351.842 53.5,347.5 Z"/></g>
<g><path style="opacity:1" fill="#050504" d="M 568.5,373.5 C 568.668,376.684 567.334,377.184 564.5,375C 554.083,374.891 543.75,374.058 533.5,372.5C 524.055,369.491 516.221,371.825 510,379.5C 502.479,387.73 499.146,397.397 500,408.5C 504.953,424.222 515.453,429.222 531.5,423.5C 535.488,423.996 539.155,425.329 542.5,427.5C 543.584,427.315 544.584,426.982 545.5,426.5C 544.638,433.471 543.805,440.471 543,447.5C 539.193,457.324 532.026,461.324 521.5,459.5C 521.5,461.5 521.5,463.5 521.5,465.5C 510.332,463.003 501.166,457.336 494,448.5C 492.982,445.257 492.482,441.924 492.5,438.5C 493.218,426.254 494.552,414.087 496.5,402C 497.004,394.676 494.17,392.843 488,396.5C 487.084,401.179 487.584,405.679 489.5,410C 488.426,413.274 487.426,416.441 486.5,419.5C 485.173,413.686 483.34,408.019 481,402.5C 480.333,398.833 480.333,395.167 481,391.5C 485.874,361.976 502.374,352.476 530.5,363C 538.177,363.237 545.844,363.237 553.5,363C 560.357,364.076 565.357,367.576 568.5,373.5 Z"/></g>
<g><path style="opacity:1" fill="#fdfdfd" d="M 127.5,365.5 C 130.21,393.768 132.21,422.102 133.5,450.5C 133.5,451.5 133.5,452.5 133.5,453.5C 125.167,453.5 116.833,453.5 108.5,453.5C 108.5,424.5 108.5,395.5 108.5,366.5C 112.167,366.5 115.833,366.5 119.5,366.5C 119.077,368.781 119.744,370.448 121.5,371.5C 122.461,369.735 122.795,367.735 122.5,365.5C 124.167,365.5 125.833,365.5 127.5,365.5 Z"/></g>
<g><path style="opacity:1" fill="#f4f4f4" d="M 97.5,365.5 C 101.198,365.552 104.865,365.886 108.5,366.5C 108.5,395.5 108.5,424.5 108.5,453.5C 116.833,453.5 125.167,453.5 133.5,453.5C 133.5,452.5 133.5,451.5 133.5,450.5C 134.486,454.97 134.819,459.637 134.5,464.5C 109.824,464.833 85.1577,464.5 60.5,463.5C 61.6432,459.045 64.3098,455.878 68.5,454C 78.1609,453.5 87.8276,453.334 97.5,453.5C 97.5,424.167 97.5,394.833 97.5,365.5 Z"/></g>
<g><path style="opacity:1" fill="#1a624b" d="M 121.5,371.5 C 119.744,370.448 119.077,368.781 119.5,366.5C 119.56,365.957 119.893,365.624 120.5,365.5C 121.466,367.396 121.799,369.396 121.5,371.5 Z"/></g>
<g><path style="opacity:1" fill="#e4ae7c" d="M 533.5,372.5 C 541.179,375.183 546.179,380.516 548.5,388.5C 549.219,390.764 549.552,393.097 549.5,395.5C 545.924,394.187 542.258,393.687 538.5,394C 537.167,395.333 537.167,396.667 538.5,398C 542.061,399.232 545.394,400.732 548.5,402.5C 548.5,403.167 548.5,403.833 548.5,404.5C 540.632,403.083 537.965,403.083 540.5,404.5C 540.34,406.199 540.506,407.866 541,409.5C 541.561,410.022 542.228,410.355 543,410.5C 544.632,408.91 546.132,407.244 547.5,405.5C 547.094,412.528 546.427,419.528 545.5,426.5C 544.584,426.982 543.584,427.315 542.5,427.5C 539.155,425.329 535.488,423.996 531.5,423.5C 515.453,429.222 504.953,424.222 500,408.5C 499.146,397.397 502.479,387.73 510,379.5C 516.221,371.825 524.055,369.491 533.5,372.5 Z"/></g>
<g><path style="opacity:1" fill="#161716" d="M 533.5,372.5 C 543.75,374.058 554.083,374.891 564.5,375C 567.334,377.184 568.668,376.684 568.5,373.5C 569.622,375.288 569.789,377.288 569,379.5C 563.803,386.181 556.97,389.181 548.5,388.5C 546.179,380.516 541.179,375.183 533.5,372.5 Z"/></g>
<g><path style="opacity:1" fill="#110d09" d="M 511.5,389.5 C 514.518,389.335 517.518,389.502 520.5,390C 522.909,391.707 525.575,392.54 528.5,392.5C 528.625,395.893 526.958,397.226 523.5,396.5C 517.479,396.022 511.479,395.356 505.5,394.5C 507.544,392.781 509.544,391.114 511.5,389.5 Z"/></g>
<g><path style="opacity:1" fill="#e9b280" d="M 521.5,465.5 C 521.5,467.833 521.5,470.167 521.5,472.5C 523.861,472.674 526.194,473.007 528.5,473.5C 533.278,480.693 532.278,486.86 525.5,492C 522.167,493.333 518.833,494.667 515.5,496C 497.409,499.653 481.243,495.82 467,484.5C 462.039,478.286 462.539,472.619 468.5,467.5C 471.167,467.5 473.833,467.5 476.5,467.5C 480.048,451.546 483.381,435.546 486.5,419.5C 487.426,416.441 488.426,413.274 489.5,410C 487.584,405.679 487.084,401.179 488,396.5C 494.17,392.843 497.004,394.676 496.5,402C 494.552,414.087 493.218,426.254 492.5,438.5C 492.482,441.924 492.982,445.257 494,448.5C 501.166,457.336 510.332,463.003 521.5,465.5 Z"/></g>
<g><path style="opacity:1" fill="#15120e" d="M 549.5,395.5 C 551.987,397.78 552.653,400.447 551.5,403.5C 550.583,402.873 549.583,402.539 548.5,402.5C 545.394,400.732 542.061,399.232 538.5,398C 537.167,396.667 537.167,395.333 538.5,394C 542.258,393.687 545.924,394.187 549.5,395.5 Z"/></g>
<g><path style="opacity:1" fill="#171514" d="M 522.5,402.5 C 521.5,402.5 520.5,402.5 519.5,402.5C 520.167,406.5 518.5,408.167 514.5,407.5C 514.5,405.5 514.5,403.5 514.5,401.5C 511.09,400.342 513.423,400.175 521.5,401C 522.056,401.383 522.389,401.883 522.5,402.5 Z"/></g>
<g><path style="opacity:1" fill="#564435" d="M 522.5,402.5 C 524.337,402.639 524.67,403.306 523.5,404.5C 522.702,404.043 522.369,403.376 522.5,402.5 Z"/></g>
<g><path style="opacity:1" fill="#0d0c0a" d="M 548.5,404.5 C 550.085,405.002 550.585,406.002 550,407.5C 549.292,406.619 548.458,405.953 547.5,405.5C 546.132,407.244 544.632,408.91 543,410.5C 542.228,410.355 541.561,410.022 541,409.5C 540.506,407.866 540.34,406.199 540.5,404.5C 537.965,403.083 540.632,403.083 548.5,404.5 Z"/></g>
<g><path style="opacity:1" fill="#79382c" d="M 533.5,402.5 C 534.49,408.31 534.823,414.31 534.5,420.5C 531.927,420.852 529.594,420.352 527.5,419C 529.235,418.349 530.902,418.515 532.5,419.5C 533.495,413.872 533.829,408.206 533.5,402.5 Z"/></g>
<g><path style="opacity:1" fill="#ededed" d="M 330.5,409.5 C 329.508,409.328 328.842,409.662 328.5,410.5C 316.11,398.606 302.443,396.439 287.5,404C 274.4,412.794 269.4,424.961 272.5,440.5C 271.549,441.919 271.216,443.585 271.5,445.5C 271.511,450.367 273.011,454.7 276,458.5C 282.267,463.59 289.1,467.756 296.5,471C 307.342,473.206 317.009,470.872 325.5,464C 329.321,460.365 333.154,456.865 337,453.5C 344.282,437.642 342.449,422.976 331.5,409.5C 342.505,409.333 353.505,409.5 364.5,410C 382.413,417.062 386.913,429.229 378,446.5C 375.292,450.104 371.792,452.604 367.5,454C 356.889,455.097 346.222,455.931 335.5,456.5C 320.063,475.969 301.73,479.136 280.5,466C 264.877,450.705 262.377,433.205 273,413.5C 287.685,397.024 304.852,393.858 324.5,404C 326.996,405.331 328.996,407.164 330.5,409.5 Z"/></g>
<g><path style="opacity:1" fill="#fefefe" d="M 328.5,410.5 C 334.359,417.745 337.025,426.079 336.5,435.5C 331.909,457.811 318.242,467.311 295.5,464C 283.586,460.254 275.92,452.42 272.5,440.5C 269.4,424.961 274.4,412.794 287.5,404C 302.443,396.439 316.11,398.606 328.5,410.5 Z"/></g>
<g><path style="opacity:1" fill="#000201" d="M 674.5,518.5 C 672.472,497.864 670.806,477.197 669.5,456.5C 672.753,442.906 676.92,429.573 682,416.5C 683.12,447.651 681.453,478.651 677,509.5C 676.594,512.742 675.761,515.742 674.5,518.5 Z"/></g>
<g><path style="opacity:1" fill="#bc786a" d="M 521.5,429.5 C 524.1,430.365 526.767,431.032 529.5,431.5C 531.481,431.563 533.148,430.896 534.5,429.5C 534.833,429.833 535.167,430.167 535.5,430.5C 531.729,434.148 527.562,434.482 523,431.5C 521.97,431.164 521.47,430.497 521.5,429.5 Z"/></g>
<g><path style="opacity:1" fill="#f6f8f8" d="M 669.5,456.5 C 670.806,477.197 672.472,497.864 674.5,518.5C 683.062,572 690.229,625.667 696,679.5C 685.511,639.876 675.177,600.21 665,560.5C 662.412,548.225 660.078,535.891 658,523.5C 657.227,512.415 657.894,501.415 660,490.5C 662.333,480.838 664.666,471.172 667,461.5C 667.374,459.509 668.207,457.842 669.5,456.5 Z"/></g>
<g><path style="opacity:1" fill="#b8b8b8" d="M 336.5,435.5 C 337.16,436.964 337.493,438.631 337.5,440.5C 336.515,444.881 335.348,449.214 334,453.5C 328.575,456.921 323.741,461.088 319.5,466C 302.017,471.909 287.184,468.076 275,454.5C 274.1,451.282 272.933,448.282 271.5,445.5C 271.216,443.585 271.549,441.919 272.5,440.5C 275.92,452.42 283.586,460.254 295.5,464C 318.242,467.311 331.909,457.811 336.5,435.5 Z"/></g>
<g><path style="opacity:1" fill="#dbdbdb" d="M 330.5,409.5 C 330.833,409.5 331.167,409.5 331.5,409.5C 342.449,422.976 344.282,437.642 337,453.5C 333.154,456.865 329.321,460.365 325.5,464C 317.009,470.872 307.342,473.206 296.5,471C 289.1,467.756 282.267,463.59 276,458.5C 273.011,454.7 271.511,450.367 271.5,445.5C 272.933,448.282 274.1,451.282 275,454.5C 287.184,468.076 302.017,471.909 319.5,466C 323.741,461.088 328.575,456.921 334,453.5C 335.348,449.214 336.515,444.881 337.5,440.5C 337.493,438.631 337.16,436.964 336.5,435.5C 337.025,426.079 334.359,417.745 328.5,410.5C 328.842,409.662 329.508,409.328 330.5,409.5 Z"/></g>
<g><path style="opacity:1" fill="#efefef" d="M 135.5,480.5 C 136.969,500.381 138.636,520.381 140.5,540.5C 110.5,540.5 80.5,540.5 50.5,540.5C 50.5,520.5 50.5,500.5 50.5,480.5C 68.5123,480.167 86.5123,480.5 104.5,481.5C 105.648,483.149 106.981,484.649 108.5,486C 117.494,486.5 126.494,486.666 135.5,486.5C 135.5,484.5 135.5,482.5 135.5,480.5 Z"/></g>
<g><path style="opacity:1" fill="#4c4850" d="M 258.5,485.5 C 259.827,489.783 260.493,494.449 260.5,499.5C 260.167,504.167 259.833,508.833 259.5,513.5C 258.502,504.19 258.168,494.857 258.5,485.5 Z"/></g>
<g><path style="opacity:1" fill="#646068" d="M 351.5,485.5 C 352.833,485.5 354.167,485.5 355.5,485.5C 355.778,487.346 355.111,488.68 353.5,489.5C 351.889,488.68 351.222,487.346 351.5,485.5 Z"/></g>
<g><path style="opacity:1" fill="#4e4952" d="M 347.5,495.5 C 345.5,495.5 343.5,495.5 341.5,495.5C 341.181,500.363 341.514,505.03 342.5,509.5C 343.79,510.935 345.456,511.935 347.5,512.5C 344.23,514.214 341.73,513.548 340,510.5C 339.501,505.511 339.334,500.511 339.5,495.5C 334.167,494.833 334.167,494.167 339.5,493.5C 340.167,486.833 340.833,486.833 341.5,493.5C 344.082,493.025 346.082,493.692 347.5,495.5 Z"/></g>
<g><path style="opacity:1" fill="#544f58" d="M 267.5,493.5 C 268.735,493.721 269.735,494.388 270.5,495.5C 275.584,492.364 280.084,493.031 284,497.5C 284.499,502.823 284.666,508.156 284.5,513.5C 283.5,513.5 282.5,513.5 281.5,513.5C 281.666,508.156 281.499,502.823 281,497.5C 276.585,494.45 272.918,495.117 270,499.5C 269.828,504.202 269.328,508.868 268.5,513.5C 267.503,506.866 267.17,500.2 267.5,493.5 Z"/></g>
<g><path style="opacity:1" fill="#59555d" d="M 295.5,492.5 C 299.676,492.168 303.176,493.502 306,496.5C 306.483,495.552 306.649,494.552 306.5,493.5C 307.5,493.5 308.5,493.5 309.5,493.5C 309.5,500.167 309.5,506.833 309.5,513.5C 308.5,513.5 307.5,513.5 306.5,513.5C 306.649,512.448 306.483,511.448 306,510.5C 300.391,514.716 295.058,514.383 290,509.5C 286.787,502.129 288.62,496.462 295.5,492.5 Z"/></g>
<g><path style="opacity:1" fill="#5b575f" d="M 321.5,492.5 C 326.06,492.281 329.727,493.948 332.5,497.5C 332.167,497.833 331.833,498.167 331.5,498.5C 326.345,494.276 321.512,494.61 317,499.5C 315.337,508.167 318.837,512 327.5,511C 328.981,510.02 330.315,508.853 331.5,507.5C 332.308,507.808 332.975,508.308 333.5,509C 329.732,513.207 325.066,514.54 319.5,513C 311.146,505.29 311.813,498.457 321.5,492.5 Z"/></g>
<g><path style="opacity:1" fill="#4c4850" d="M 352.5,493.5 C 353.82,496.428 354.486,499.761 354.5,503.5C 354.167,506.833 353.833,510.167 353.5,513.5C 352.503,506.866 352.17,500.2 352.5,493.5 Z"/></g>
<g><path style="opacity:1" fill="#59545d" d="M 358.5,493.5 C 359.675,493.281 360.675,493.614 361.5,494.5C 363.569,499.873 365.736,505.207 368,510.5C 370.264,505.207 372.431,499.873 374.5,494.5C 375.365,493.417 376.365,493.251 377.5,494C 375.028,500.415 372.362,506.748 369.5,513C 368.216,513.684 367.049,513.517 366,512.5C 363.396,506.182 360.896,499.849 358.5,493.5 Z"/></g>
<g><path style="opacity:1" fill="#57535b" d="M 386.5,492.5 C 392.855,492.02 397.355,494.686 400,500.5C 400,510.82 394.834,514.986 384.5,513C 377.301,505.294 377.968,498.461 386.5,492.5 Z"/></g>
<g><path style="opacity:1" fill="#f9f9f9" d="M 295.5,495.5 C 303.709,494.872 307.209,498.539 306,506.5C 300.67,513.311 295.67,512.977 291,505.5C 290.596,501.308 292.096,497.975 295.5,495.5 Z"/></g>
<g><path style="opacity:1" fill="#f7f6f7" d="M 386.5,495.5 C 394.658,494.823 398.158,498.49 397,506.5C 394.774,510.861 391.274,512.361 386.5,511C 379.888,505.836 379.888,500.67 386.5,495.5 Z"/></g>
<g><path style="opacity:1" fill="#a3a0a5" d="M 347.5,495.5 C 346.081,496.451 344.415,496.784 342.5,496.5C 342.5,500.833 342.5,505.167 342.5,509.5C 341.514,505.03 341.181,500.363 341.5,495.5C 343.5,495.5 345.5,495.5 347.5,495.5 Z"/></g>
<g><path style="opacity:1" fill="#2b6d58" d="M 129.5,364.5 C 133.901,421.78 138.068,479.113 142,536.5C 143.255,542.843 146.421,548.01 151.5,552C 146.374,549.705 142.708,545.871 140.5,540.5C 138.636,520.381 136.969,500.381 135.5,480.5C 135.733,475.105 135.4,469.772 134.5,464.5C 134.819,459.637 134.486,454.97 133.5,450.5C 132.21,422.102 130.21,393.768 127.5,365.5C 127.842,364.662 128.508,364.328 129.5,364.5 Z"/></g>
<g><path style="opacity:1" fill="#f0f0f0" d="M 51.5,553.5 C 69.1698,553.333 86.8365,553.5 104.5,554C 105.909,556.879 108.243,558.545 111.5,559C 180.833,559.667 250.167,559.667 319.5,559C 321.974,558.887 323.974,557.887 325.5,556C 343.83,555.5 362.164,555.333 380.5,555.5C 380.5,574.833 380.5,594.167 380.5,613.5C 270.833,613.5 161.167,613.5 51.5,613.5C 51.5,593.5 51.5,573.5 51.5,553.5 Z"/></g>
<g><path style="opacity:1" fill="#e7e7e7" d="M 406.5,555.5 C 439.833,555.5 473.167,555.5 506.5,555.5C 506.5,608.833 506.5,662.167 506.5,715.5C 473.167,715.5 439.833,715.5 406.5,715.5C 406.5,662.167 406.5,608.833 406.5,555.5 Z"/></g>
<g><path style="opacity:1" fill="#f0f0f0" d="M 50.5,625.5 C 68.5031,625.333 86.5031,625.5 104.5,626C 105.5,628.333 107.167,630 109.5,631C 180.167,631.667 250.833,631.667 321.5,631C 324.32,630.264 326.32,628.598 327.5,626C 345.164,625.5 362.83,625.333 380.5,625.5C 380.5,645.833 380.5,666.167 380.5,686.5C 270.5,686.5 160.5,686.5 50.5,686.5C 50.5,666.167 50.5,645.833 50.5,625.5 Z"/></g>
<g><path style="opacity:1" fill="#e7e7e7" d="M 70.5,703.5 C 98.1667,703.5 125.833,703.5 153.5,703.5C 153.5,707.5 153.5,711.5 153.5,715.5C 122.16,715.833 90.8262,715.5 59.5,714.5C 63.521,711.146 67.1877,707.479 70.5,703.5 Z"/></g>
<g><path style="opacity:1" fill="#070704" d="M 702.5,710.5 C 696.712,713.395 690.712,715.728 684.5,717.5C 684.443,716.391 684.11,715.391 683.5,714.5C 688.955,711.608 694.622,708.942 700.5,706.5C 702.111,707.32 702.778,708.654 702.5,710.5 Z"/></g>
<g><path style="opacity:1" fill="#f8b26e" d="M 702.5,710.5 C 704.926,713.013 706.592,716.013 707.5,719.5C 702.473,723.853 697.14,727.853 691.5,731.5C 689.694,726.554 687.361,721.888 684.5,717.5C 690.712,715.728 696.712,713.395 702.5,710.5 Z"/></g>
<g><path style="opacity:1" fill="#1c3036" d="M 707.5,719.5 C 708.552,719.351 709.552,719.517 710.5,720C 715.42,724.414 719.753,729.247 723.5,734.5C 723.392,735.442 723.059,736.275 722.5,737C 719.433,739.188 716.433,741.355 713.5,743.5C 711.246,744.124 709.579,745.457 708.5,747.5C 708.167,747.5 707.833,747.5 707.5,747.5C 699.044,753.449 690.711,759.616 682.5,766C 676.846,769.05 674.013,767.55 674,761.5C 679.7,755.436 683.867,748.436 686.5,740.5C 687.11,739.609 687.443,738.609 687.5,737.5C 687.5,737.167 687.5,736.833 687.5,736.5C 687.833,735.833 688.167,735.167 688.5,734.5C 688.5,734.167 688.5,733.833 688.5,733.5C 689.71,733.068 690.71,732.401 691.5,731.5C 697.14,727.853 702.473,723.853 707.5,719.5 Z"/></g>
<g><path style="opacity:1" fill="#52a77e" d="M 688.5,733.5 C 686.906,733.08 685.406,732.414 684,731.5C 681.72,731.894 681.22,732.894 682.5,734.5C 680.775,734.157 680.275,733.157 681,731.5C 684.178,729.833 686.678,730.5 688.5,733.5 Z"/></g>
<g><path style="opacity:1" fill="#eff7f4" d="M 688.5,733.5 C 688.5,733.833 688.5,734.167 688.5,734.5C 686.5,734.5 684.5,734.5 682.5,734.5C 681.22,732.894 681.72,731.894 684,731.5C 685.406,732.414 686.906,733.08 688.5,733.5 Z"/></g>
<g><path style="opacity:1" fill="#f6faf9" d="M 687.5,736.5 C 687.5,736.833 687.5,737.167 687.5,737.5C 685.477,739.7 683.143,740.367 680.5,739.5C 682.577,737.918 684.91,736.918 687.5,736.5 Z"/></g>
<g><path style="opacity:1" fill="#50a57e" d="M 682.5,734.5 C 684.5,734.5 686.5,734.5 688.5,734.5C 688.167,735.167 687.833,735.833 687.5,736.5C 684.91,736.918 682.577,737.918 680.5,739.5C 683.143,740.367 685.477,739.7 687.5,737.5C 687.443,738.609 687.11,739.609 686.5,740.5C 684.236,741.219 681.903,741.552 679.5,741.5C 679.215,737.962 680.882,736.129 684.5,736C 683.584,735.722 682.918,735.222 682.5,734.5 Z"/></g>
<g><path style="opacity:1" fill="#0a0503" d="M 713.5,743.5 C 718.167,743.5 722.833,743.5 727.5,743.5C 727.5,744.833 727.5,746.167 727.5,747.5C 721.167,747.5 714.833,747.5 708.5,747.5C 709.579,745.457 711.246,744.124 713.5,743.5 Z"/></g>
<g><path style="opacity:1" fill="#fcb571" d="M 707.5,747.5 C 707.833,747.5 708.167,747.5 708.5,747.5C 714.833,747.5 721.167,747.5 727.5,747.5C 727.5,754.167 727.5,760.833 727.5,767.5C 720.833,767.5 714.167,767.5 707.5,767.5C 707.5,760.833 707.5,754.167 707.5,747.5 Z"/></g>
<g><path style="opacity:1" fill="#5cac87" d="M 702.5,768.5 C 702.167,768.5 701.833,768.5 701.5,768.5C 700.527,768.013 699.527,767.513 698.5,767C 699.573,765.75 699.573,764.416 698.5,763C 699.291,760.266 700.624,759.932 702.5,762C 701.5,762.333 700.5,762.667 699.5,763C 700.639,764.78 701.639,766.614 702.5,768.5 Z"/></g>
<g><path style="opacity:1" fill="#1c3037" d="M 707.5,767.5 C 714.167,767.5 720.833,767.5 727.5,767.5C 728.75,767.577 729.583,768.244 730,769.5C 731.479,776.037 731.646,782.537 730.5,789C 713.833,789.667 697.167,789.667 680.5,789C 677.542,786.872 676.876,784.206 678.5,781C 686.814,779.857 693.814,776.357 699.5,770.5C 700.167,770.5 700.5,770.167 700.5,769.5C 701.167,769.5 701.5,769.167 701.5,768.5C 701.833,768.5 702.167,768.5 702.5,768.5C 704.042,767.699 705.708,767.366 707.5,767.5 Z"/></g>
<g><path style="opacity:1" fill="#409f75" d="M 700.5,769.5 C 700.5,770.167 700.167,770.5 699.5,770.5C 695.5,771.167 693.833,769.5 694.5,765.5C 697.797,765.329 698.131,765.995 695.5,767.5C 696.668,769.217 698.335,769.884 700.5,769.5 Z"/></g>
</svg>
