<svg width="320" height="282" viewBox="0 0 320 282" fill="none" xmlns="http://www.w3.org/2000/svg">
<path fill-rule="evenodd" clip-rule="evenodd" d="M151.921 53.5228L294.472 52.6282C298.948 52.6011 302.598 56.2059 302.627 60.6809L303.133 141.378C303.161 145.853 299.556 149.503 295.081 149.531L152.529 150.425C148.054 150.454 144.403 146.849 144.375 142.374L143.87 61.6764C143.841 57.2014 147.446 53.5509 151.921 53.5228Z" fill="#ECECEC"/>
<path fill-rule="evenodd" clip-rule="evenodd" d="M158.783 64.4697L186.695 64.2944C188.847 64.2809 190.602 66.0144 190.616 68.1663L190.705 82.1688C190.718 84.3215 188.984 86.0769 186.832 86.09L158.919 86.2654C156.768 86.2791 155.012 84.5446 154.999 82.3934L154.911 68.3912C154.898 66.2385 156.631 64.4831 158.783 64.4697Z" fill="white"/>
<path fill-rule="evenodd" clip-rule="evenodd" d="M156.567 118.525L183.914 118.353C184.721 118.348 185.38 118.998 185.384 119.806L185.416 124.746C185.421 125.553 184.771 126.212 183.963 126.216L156.616 126.388C155.809 126.393 155.151 125.742 155.146 124.936L155.115 119.996C155.109 119.188 155.76 118.53 156.567 118.525Z" fill="white"/>
<path fill-rule="evenodd" clip-rule="evenodd" d="M192.146 118.305L219.493 118.134C220.3 118.129 220.959 118.779 220.963 119.586L220.995 124.526C221 125.333 220.35 125.992 219.543 125.997L192.195 126.169C191.388 126.174 190.73 125.523 190.725 124.716L190.694 119.776C190.688 118.969 191.339 118.31 192.146 118.305Z" fill="white"/>
<path fill-rule="evenodd" clip-rule="evenodd" d="M227.718 118.082L255.065 117.911C255.872 117.906 256.531 118.556 256.536 119.363L256.567 124.304C256.572 125.111 255.922 125.769 255.115 125.775L227.767 125.945C226.96 125.951 226.302 125.3 226.297 124.494L226.265 119.553C226.26 118.746 226.911 118.087 227.718 118.082Z" fill="white"/>
<path fill-rule="evenodd" clip-rule="evenodd" d="M263.297 117.863L290.644 117.692C291.451 117.687 292.11 118.337 292.115 119.144L292.146 124.084C292.151 124.891 291.501 125.549 290.694 125.555L263.345 125.726C262.539 125.731 261.881 125.081 261.875 124.274L261.844 119.333C261.839 118.527 262.49 117.867 263.297 117.863Z" fill="white"/>
<path fill-rule="evenodd" clip-rule="evenodd" d="M282.773 63.856C288.717 64.8141 292.758 70.4104 291.8 76.3546C290.841 82.2985 285.246 86.3401 279.301 85.382C273.357 84.4231 269.315 78.8272 270.274 72.8833C271.233 66.9387 276.829 62.8971 282.773 63.856Z" fill="white"/>
<path fill-rule="evenodd" clip-rule="evenodd" d="M191.07 272.717H197.22V272.54H191.07V272.717Z" fill="#ECECEC"/>
<path fill-rule="evenodd" clip-rule="evenodd" d="M243.466 264.228H257.044V264.051H243.466V264.228Z" fill="#ECECEC"/>
<path fill-rule="evenodd" clip-rule="evenodd" d="M0 265.416H30.5585V265.239H0V265.416Z" fill="#ECECEC"/>
<path fill-rule="evenodd" clip-rule="evenodd" d="M36.858 265.416H41.3386V265.239H36.858V265.416Z" fill="#ECECEC"/>
<path fill-rule="evenodd" clip-rule="evenodd" d="M55.9001 268.403H122.175V268.227H55.9001V268.403Z" fill="#ECECEC"/>
<path fill-rule="evenodd" clip-rule="evenodd" d="M169.029 107.671H169.557V52.1645H169.029V107.671Z" fill="#E7E7E7"/>
<path fill-rule="evenodd" clip-rule="evenodd" d="M9.13733 259.234H47.7506V184.316H9.13733V259.234Z" fill="#E7E7E7"/>
<path fill-rule="evenodd" clip-rule="evenodd" d="M19.448 259.233H9.13708V248.891H30.2591L19.448 259.233Z" fill="#FAFAFA"/>
<path fill-rule="evenodd" clip-rule="evenodd" d="M114.419 259.234H153.032V184.316H114.419V259.234Z" fill="#E7E7E7"/>
<path fill-rule="evenodd" clip-rule="evenodd" d="M9.13733 255.673H123.417V184.315H9.13733V255.673Z" fill="#FAFAFA"/>
<path fill-rule="evenodd" clip-rule="evenodd" d="M113.106 259.233H123.417V248.891H102.295L113.106 259.233Z" fill="#FAFAFA"/>
<path fill-rule="evenodd" clip-rule="evenodd" d="M17.1364 228.763H115.419V210.906H17.1364V228.763Z" fill="#F0F0F0"/>
<path fill-rule="evenodd" clip-rule="evenodd" d="M17.1364 250.438H115.419V232.58H17.1364V250.438Z" fill="#F0F0F0"/>
<path fill-rule="evenodd" clip-rule="evenodd" d="M35.8167 212.816H96.7371C98.5256 212.816 99.9753 211.366 99.9753 209.578V209.359H32.5792V209.578C32.5792 211.366 34.0282 212.816 35.8167 212.816Z" fill="#FAFAFA"/>
<path fill-rule="evenodd" clip-rule="evenodd" d="M17.1364 207.09H115.419V189.232H17.1364V207.09Z" fill="#F0F0F0"/>
<path fill-rule="evenodd" clip-rule="evenodd" d="M35.8167 191.141H96.7371C98.5256 191.141 99.9753 189.691 99.9753 187.903V187.685H32.5792V187.903C32.5792 189.691 34.0282 191.141 35.8167 191.141Z" fill="#FAFAFA"/>
<path fill-rule="evenodd" clip-rule="evenodd" d="M35.8167 234.489H96.7371C98.5256 234.489 99.9753 233.04 99.9753 231.252V231.033H32.5792V231.252C32.5792 233.04 34.0282 234.489 35.8167 234.489Z" fill="#FAFAFA"/>
<path fill-rule="evenodd" clip-rule="evenodd" d="M15.2882 111.835H112.767V48H15.2882V111.835Z" fill="#E7E7E7"/>
<path fill-rule="evenodd" clip-rule="evenodd" d="M12.3138 111.835H111.377V48H12.3138V111.835Z" fill="#F0F0F0"/>
<path fill-rule="evenodd" clip-rule="evenodd" d="M15.2882 124.363H112.767V111.834H15.2882V124.363Z" fill="#E7E7E7"/>
<path fill-rule="evenodd" clip-rule="evenodd" d="M7.35925 124.363H106.422V111.834H7.35925V124.363Z" fill="#F0F0F0"/>
<path fill-rule="evenodd" clip-rule="evenodd" d="M16.4775 107.671H107.213V52.1645H16.4775V107.671Z" fill="#FAFAFA"/>
<path fill-rule="evenodd" clip-rule="evenodd" d="M86.7529 107.671L75.1636 52.1645H57.0795L68.6688 107.671H86.7529Z" fill="white"/>
<path fill-rule="evenodd" clip-rule="evenodd" d="M105.285 103.526C105.449 103.526 105.582 103.393 105.582 103.229V54.8729C105.582 54.7088 105.449 54.5758 105.285 54.5758C105.121 54.5758 104.987 54.7088 104.987 54.8729V103.229C104.987 103.393 105.121 103.526 105.285 103.526Z" fill="#F0F0F0"/>
<path fill-rule="evenodd" clip-rule="evenodd" d="M64.784 107.671L53.1947 52.1645H46.1445L57.7339 107.671H64.784Z" fill="white"/>
<path fill-rule="evenodd" clip-rule="evenodd" d="M16.478 107.671H17.0065V52.1645H16.478V107.671Z" fill="#E7E7E7"/>
<path fill-rule="evenodd" clip-rule="evenodd" d="M11.3295 58.4426H108.808L109.191 53.7831H11.7129L11.3295 58.4426Z" fill="#ECECEC"/>
<path fill-rule="evenodd" clip-rule="evenodd" d="M11.3295 61.0709H108.808L109.191 56.4114H11.7129L11.3295 61.0709Z" fill="#ECECEC"/>
<path fill-rule="evenodd" clip-rule="evenodd" d="M11.3295 63.6998H108.808L109.191 59.0403H11.7129L11.3295 63.6998Z" fill="#ECECEC"/>
<path fill-rule="evenodd" clip-rule="evenodd" d="M11.3295 66.3281H108.808L109.191 61.6685H11.7129L11.3295 66.3281Z" fill="#ECECEC"/>
<path fill-rule="evenodd" clip-rule="evenodd" d="M11.3295 68.9569H108.808L109.191 64.2974H11.7129L11.3295 68.9569Z" fill="#ECECEC"/>
<path fill-rule="evenodd" clip-rule="evenodd" d="M11.3295 71.5857H108.808L109.191 66.9262H11.7129L11.3295 71.5857Z" fill="#ECECEC"/>
<path fill-rule="evenodd" clip-rule="evenodd" d="M30.8141 182.027H34.1839V144.465H30.8141V182.027Z" fill="#F5F5F5"/>
<path fill-rule="evenodd" clip-rule="evenodd" d="M31.2484 182.001H32.2V144.439H31.2484V182.001Z" fill="#FAFAFA"/>
<path fill-rule="evenodd" clip-rule="evenodd" d="M32.599 182.001H32.9718V144.439H32.599V182.001Z" fill="#FAFAFA"/>
<path fill-rule="evenodd" clip-rule="evenodd" d="M20.0247 184.316H44.9735C44.9735 182.579 43.5663 181.172 41.8302 181.172H23.168C21.4319 181.172 20.0247 182.579 20.0247 184.316Z" fill="#F0F0F0"/>
<path fill-rule="evenodd" clip-rule="evenodd" d="M26.443 167.783C26.9765 167.783 27.4123 167.346 27.4123 166.813V142.186C27.4123 141.653 26.9765 141.216 26.443 141.216C25.9103 141.216 25.4738 141.653 25.4738 142.186V166.813C25.4738 167.346 25.9103 167.783 26.443 167.783Z" fill="#F0F0F0"/>
<path fill-rule="evenodd" clip-rule="evenodd" d="M17.4143 153.393H47.5837L44.1128 132.31H20.8845L17.4143 153.393Z" fill="#E1E1E1"/>
<path fill-rule="evenodd" clip-rule="evenodd" d="M36.7816 144.955L35.842 131.908L36.5474 131.858L37.487 144.904L36.7816 144.955Z" fill="#00573F"/>
<path fill-rule="evenodd" clip-rule="evenodd" d="M37.62 156.601L37.2662 151.693L37.9723 151.642L38.3261 156.55L37.62 156.601Z" fill="#00573F"/>
<path fill-rule="evenodd" clip-rule="evenodd" d="M201.812 211.663H50.2981C46.8718 211.663 43.8656 208.859 43.6187 205.432L36.1745 102.047C35.9276 98.6204 38.5298 95.8166 41.9561 95.8166H193.47C196.898 95.8166 199.903 98.6204 200.15 102.047L207.595 205.432C207.842 208.859 205.24 211.663 201.812 211.663Z" fill="#00573F"/>
<path fill-rule="evenodd" clip-rule="evenodd" d="M202.393 211.663H50.8789C47.4526 211.663 44.4465 208.859 44.1995 205.432L36.7554 102.047C36.5084 98.6202 39.1106 95.8164 42.5369 95.8164H194.051C197.478 95.8164 200.484 98.6202 200.731 102.047L208.176 205.432C208.422 208.859 205.82 211.663 202.393 211.663Z" fill="#007CFF"/>
<path fill-rule="evenodd" clip-rule="evenodd" d="M202.393 211.663H50.8789C47.4526 211.663 44.4465 208.859 44.1995 205.432L36.7554 102.047C36.5084 98.6202 39.1106 95.8164 42.5369 95.8164H194.051C197.478 95.8164 200.484 98.6202 200.731 102.047L208.176 205.432C208.422 208.859 205.82 211.663 202.393 211.663Z" fill="white"/>
<path fill-rule="evenodd" clip-rule="evenodd" d="M194.276 98.9316H42.7614C42.5902 98.9316 42.4211 98.9387 42.2541 98.9522C38.3806 99.2712 39.1723 105.162 43.0812 105.162H194.854C198.763 105.162 198.705 99.2712 194.786 98.9522C194.617 98.9387 194.447 98.9316 194.276 98.9316Z" fill="#64CCC9"/>
<path fill-rule="evenodd" clip-rule="evenodd" d="M46.7076 102.047C46.7642 102.836 46.1706 103.475 45.3818 103.475C44.5929 103.475 43.9074 102.836 43.8508 102.047C43.7942 101.258 44.3871 100.618 45.1766 100.618C45.9655 100.618 46.651 101.258 46.7076 102.047Z" fill="#FAFAFA"/>
<path fill-rule="evenodd" clip-rule="evenodd" d="M51.5665 102.047C51.6231 102.836 51.0302 103.475 50.2407 103.475C49.4518 103.475 48.7663 102.836 48.7097 102.047C48.6531 101.258 49.2466 100.618 50.0355 100.618C50.8243 100.618 51.5099 101.258 51.5665 102.047Z" fill="#FAFAFA"/>
<path fill-rule="evenodd" clip-rule="evenodd" d="M56.4255 102.047C56.4821 102.836 55.8885 103.475 55.0997 103.475C54.3108 103.475 53.6253 102.836 53.5687 102.047C53.5121 101.258 54.105 100.618 54.8945 100.618C55.6834 100.618 56.3689 101.258 56.4255 102.047Z" fill="#FAFAFA"/>
<path fill-rule="evenodd" clip-rule="evenodd" d="M198.376 201.344H53.4097C52.1624 201.344 51.0785 200.333 50.988 199.085L44.8661 114.064C44.7762 112.816 45.715 111.805 46.9623 111.805H191.929C193.176 111.805 194.26 112.816 194.35 114.064L200.472 199.085C200.562 200.333 199.623 201.344 198.376 201.344Z" fill="white"/>
<path fill-rule="evenodd" clip-rule="evenodd" d="M134.943 136.187L127.792 131.883L130.418 137.585L134.943 136.187Z" fill="white"/>
<rect x="76" y="117" width="34" height="14" rx="7" fill="#DCF5EE"/>
<g filter="url(#filter0_ddd_2432_1696)">
<path fill-rule="evenodd" clip-rule="evenodd" d="M100 134C105.523 134 110 129.523 110 124C110 118.477 105.523 114 100 114C94.4772 114 90 118.477 90 124C90 129.523 94.4772 134 100 134Z" fill="#212121" fill-opacity="0.08"/>
</g>
<path fill-rule="evenodd" clip-rule="evenodd" d="M100 134C105.523 134 110 129.523 110 124C110 118.477 105.523 114 100 114C94.4772 114 90 118.477 90 124C90 129.523 94.4772 134 100 134Z" fill="#124734"/>
<path d="M82.9543 148L82.1743 145.936H78.1903L77.4103 148H76.5223L79.7503 139.6H80.6143L83.8423 148H82.9543ZM78.4903 145.144H81.8743L80.1823 140.644L78.4903 145.144ZM87.4798 148.144C86.5758 148.144 85.8238 147.844 85.2238 147.244C84.6238 146.636 84.3238 145.888 84.3238 145C84.3238 144.112 84.6238 143.368 85.2238 142.768C85.8238 142.16 86.5758 141.856 87.4798 141.856C88.0718 141.856 88.6038 142 89.0758 142.288C89.5478 142.568 89.8918 142.948 90.1078 143.428L89.4598 143.8C89.2998 143.44 89.0398 143.156 88.6798 142.948C88.3278 142.732 87.9278 142.624 87.4798 142.624C86.8158 142.624 86.2558 142.856 85.7998 143.32C85.3438 143.776 85.1158 144.336 85.1158 145C85.1158 145.664 85.3438 146.228 85.7998 146.692C86.2558 147.148 86.8158 147.376 87.4798 147.376C87.9278 147.376 88.3278 147.272 88.6798 147.064C89.0318 146.848 89.3078 146.56 89.5078 146.2L90.1678 146.584C89.9198 147.064 89.5558 147.444 89.0758 147.724C88.5958 148.004 88.0638 148.144 87.4798 148.144ZM94.4848 142.768H92.7568V146.404C92.7568 146.732 92.8208 146.968 92.9488 147.112C93.0768 147.248 93.2688 147.32 93.5248 147.328C93.7808 147.328 94.1008 147.32 94.4848 147.304V148C93.6448 148.128 93.0128 148.068 92.5888 147.82C92.1728 147.572 91.9648 147.1 91.9648 146.404V142.768H90.7048V142H91.9648V140.56L92.7568 140.32V142H94.4848V142.768ZM96.6088 140.56C96.4968 140.672 96.3608 140.728 96.2008 140.728C96.0408 140.728 95.9048 140.672 95.7928 140.56C95.6808 140.448 95.6248 140.312 95.6248 140.152C95.6248 139.992 95.6808 139.856 95.7928 139.744C95.9048 139.632 96.0408 139.576 96.2008 139.576C96.3608 139.576 96.4968 139.632 96.6088 139.744C96.7208 139.856 96.7768 139.992 96.7768 140.152C96.7768 140.312 96.7208 140.448 96.6088 140.56ZM95.8048 148V142H96.5968V148H95.8048ZM102.598 142H103.438L100.978 148H100.018L97.5575 142H98.3975L100.498 147.172L102.598 142ZM109.188 147.244C108.58 147.844 107.836 148.144 106.956 148.144C106.076 148.144 105.328 147.844 104.712 147.244C104.104 146.636 103.8 145.888 103.8 145C103.8 144.112 104.104 143.368 104.712 142.768C105.328 142.16 106.076 141.856 106.956 141.856C107.836 141.856 108.58 142.16 109.188 142.768C109.804 143.368 110.112 144.112 110.112 145C110.112 145.888 109.804 146.636 109.188 147.244ZM105.276 146.692C105.732 147.148 106.292 147.376 106.956 147.376C107.62 147.376 108.18 147.148 108.636 146.692C109.092 146.228 109.32 145.664 109.32 145C109.32 144.336 109.092 143.776 108.636 143.32C108.18 142.856 107.62 142.624 106.956 142.624C106.292 142.624 105.732 142.856 105.276 143.32C104.82 143.776 104.592 144.336 104.592 145C104.592 145.664 104.82 146.228 105.276 146.692Z" fill="#4D4851"/>
<mask id="mask0_2432_1696" style="mask-type:alpha" maskUnits="userSpaceOnUse" x="125" y="145" width="61" height="61">
<circle cx="155.5" cy="175.5" r="30.5" fill="#144F4E"/>
</mask>
<g mask="url(#mask0_2432_1696)">
<circle cx="155.5" cy="175.5" r="30.5" fill="#A8E3E2"/>
<path fill-rule="evenodd" clip-rule="evenodd" d="M171.782 158.267C171.614 158.058 171.394 157.907 171.123 157.814C170.638 157.662 170.144 157.553 169.64 157.485C167.854 157.457 166.068 157.43 164.282 157.402C162.959 157.161 161.667 156.804 160.409 156.332C157.644 155.852 155.405 156.717 153.692 158.926C153.532 159.223 153.339 159.498 153.115 159.749C153.067 159.867 153.081 159.977 153.156 160.079C152.006 162.115 151.291 164.298 151.013 166.626C151.918 171.747 154.885 173.559 159.914 172.061C161.123 171.883 162.168 172.212 163.046 173.05C163.824 173.537 164.428 173.386 164.859 172.597C164.544 174.788 164.255 176.984 163.994 179.185C163.453 181.181 162.175 182.43 160.162 182.932C159.363 182.989 158.566 182.976 157.772 182.891C156.124 182.662 154.476 182.428 152.827 182.191C152.317 182.118 151.85 181.939 151.426 181.656C151.375 181.665 151.348 181.693 151.343 181.738C149.315 180.316 148.504 178.367 148.912 175.891C149.024 174.823 149.106 173.752 149.159 172.679C149.649 170.006 150.02 167.315 150.272 164.608C150.336 164.191 150.171 163.903 149.777 163.744C148.755 163.196 147.972 163.43 147.428 164.444C147.111 165.693 147.317 166.846 148.046 167.902C147.062 172.064 146.127 176.236 145.244 180.42C145.162 180.42 145.079 180.42 144.997 180.42C145.5 181 146.863 180.66 145.5 180C151.87 179.566 146.78 178.024 146.805 177.25C146.927 176.279 146.215 175.36 146.67 174.491C148.977 170.95 144.584 167.107 145.492 162.961C145.794 161.698 146.097 160.435 146.398 159.173C146.481 159.18 146.549 159.153 146.604 159.091C146.753 158.316 147 157.575 147.346 156.867C148.472 154.7 150.244 153.423 152.662 153.038C152.731 152.954 152.758 152.858 152.744 152.749C153.625 152.626 154.505 152.64 155.382 152.791C157.275 153.243 159.171 153.683 161.068 154.108C162.595 154.161 164.12 154.12 165.642 153.985C167.754 153.915 169.567 154.602 171.082 156.044C171.633 156.682 171.866 157.424 171.782 158.267Z" fill="black"/>
<path fill-rule="evenodd" clip-rule="evenodd" d="M171.782 158.267C171.975 158.722 171.851 159.051 171.411 159.255C170.764 160.203 169.899 160.876 168.815 161.273C167.915 161.632 166.981 161.811 166.013 161.808C165.875 161.808 165.739 161.808 165.601 161.808C165.21 159.95 164.221 158.509 162.634 157.485C161.714 157.163 160.78 156.888 159.832 156.661C157.529 156.432 155.648 157.215 154.186 159.008C153.957 159.375 153.696 159.718 153.403 160.038C153.325 160.077 153.243 160.091 153.156 160.079C153.081 159.977 153.067 159.867 153.115 159.749C153.339 159.498 153.532 159.223 153.692 158.926C155.405 156.717 157.644 155.852 160.409 156.332C161.667 156.804 162.959 157.161 164.282 157.402C166.068 157.43 167.853 157.457 169.639 157.485C170.144 157.553 170.638 157.662 171.123 157.814C171.394 157.907 171.614 158.058 171.782 158.267Z" fill="#131313"/>
<path fill-rule="evenodd" clip-rule="evenodd" d="M166.013 161.808C165.904 161.863 165.793 161.918 165.684 161.973C165.813 162.597 165.867 163.228 165.848 163.867C164.891 163.37 163.875 163.192 162.799 163.332C162.375 163.735 162.375 164.146 162.799 164.567C163.767 164.925 164.728 165.296 165.684 165.679C165.692 165.905 165.665 166.124 165.601 166.338C165.352 166.283 165.104 166.213 164.859 166.132C163.843 166.077 162.826 166.077 161.81 166.132C161.738 166.244 161.71 166.367 161.728 166.503C162.305 166.489 162.882 166.503 163.458 166.544C163.145 166.881 163.049 167.278 163.17 167.738C163.654 168.431 164.203 168.486 164.818 167.903C165.018 167.446 164.977 167.021 164.695 166.626C164.996 166.603 165.272 166.672 165.519 166.832C165.243 168.765 165.024 170.686 164.859 172.597C164.428 173.386 163.824 173.537 163.046 173.05C162.168 172.212 161.124 171.883 159.915 172.061C154.885 173.559 151.918 171.747 151.014 166.626C151.291 164.298 152.006 162.115 153.156 160.079C153.243 160.091 153.325 160.078 153.404 160.038C153.696 159.718 153.957 159.375 154.187 159.008C155.648 157.215 157.529 156.432 159.832 156.661C160.781 156.888 161.714 157.163 162.634 157.485C164.221 158.509 165.21 159.95 165.601 161.808C165.739 161.808 165.876 161.808 166.013 161.808Z" fill="#EBB380"/>
<path fill-rule="evenodd" clip-rule="evenodd" d="M155.052 162.055C156.352 161.952 157.588 162.185 158.76 162.755C159.427 162.681 159.743 162.969 159.708 163.62C159.651 163.831 159.528 163.982 159.337 164.073C158.822 164.2 158.301 164.227 157.771 164.155C157.222 164.018 156.673 163.881 156.123 163.744C155.051 163.719 153.979 163.719 152.909 163.744C152.825 163.657 152.812 163.561 152.868 163.455C153.446 162.748 154.174 162.281 155.052 162.055Z" fill="black"/>
<path fill-rule="evenodd" clip-rule="evenodd" d="M165.848 163.867C166.091 164.068 166.324 164.287 166.549 164.526C166.901 165.02 167.01 165.569 166.878 166.173C166.764 166.26 166.64 166.274 166.508 166.214C166.245 166.014 165.97 165.836 165.683 165.679C164.727 165.296 163.766 164.925 162.799 164.567C162.375 164.146 162.375 163.734 162.799 163.332C163.874 163.192 164.891 163.37 165.848 163.867Z" fill="black"/>
<path fill-rule="evenodd" clip-rule="evenodd" d="M151.343 181.738C153.212 183.166 155.3 184.154 157.607 184.703C157.566 185.363 157.512 186.022 157.442 186.679C158.235 186.771 159.004 186.936 159.749 187.173C161.288 189.193 161.041 190.964 159.008 192.485C156.918 193.627 154.679 194.162 152.291 194.091C148.819 194.196 145.618 193.332 142.689 191.497C141.678 190.834 140.95 189.942 140.505 188.82C140.151 187.306 140.604 186.098 141.865 185.197C142.629 185.111 143.398 185.111 144.173 185.197C144.439 183.675 144.769 182.164 145.162 180.667C145.125 180.565 145.07 180.483 144.997 180.42C145.079 180.42 145.162 180.42 145.244 180.42C146.127 176.236 147.061 172.064 148.046 167.902C147.317 166.846 147.111 165.693 147.428 164.444C147.972 163.43 148.755 163.196 149.777 163.744C150.171 163.903 150.336 164.191 150.272 164.608C150.02 167.315 149.649 170.006 149.159 172.679C149.106 173.752 149.024 174.823 148.912 175.891C148.504 178.367 149.315 180.316 151.343 181.738Z" fill="#EBB380"/>
<path fill-rule="evenodd" clip-rule="evenodd" d="M154.228 165.185C155.22 165.157 156.209 165.198 157.195 165.308C157.676 165.404 158.074 165.638 158.39 166.008C158.445 166.146 158.445 166.283 158.39 166.42C158.303 166.504 158.207 166.517 158.101 166.461C157.912 166.05 157.582 165.816 157.112 165.761C157.057 165.788 157.003 165.816 156.947 165.844C157.17 166.284 157.157 166.723 156.906 167.161C156.434 167.486 155.967 167.486 155.505 167.161C155.218 166.666 155.231 166.185 155.546 165.72C154.998 165.679 154.448 165.665 153.898 165.679C153.851 165.398 153.962 165.233 154.228 165.185Z" fill="#121212"/>
<path fill-rule="evenodd" clip-rule="evenodd" d="M165.601 166.338C165.936 166.481 166.156 166.728 166.26 167.079C166.24 167.291 166.13 167.36 165.931 167.285C165.835 167.093 165.697 166.942 165.518 166.832C165.271 166.672 164.996 166.603 164.694 166.626C164.976 167.021 165.017 167.446 164.818 167.903C164.203 168.486 163.653 168.431 163.17 167.738C163.048 167.278 163.145 166.881 163.458 166.544C162.882 166.503 162.305 166.489 161.727 166.503C161.71 166.367 161.737 166.244 161.81 166.132C162.826 166.077 163.843 166.077 164.859 166.132C165.104 166.213 165.351 166.283 165.601 166.338Z" fill="#030303"/>
<path fill-rule="evenodd" clip-rule="evenodd" d="M161.233 165.926C161.342 165.912 161.438 165.939 161.521 166.008C161.577 167.628 161.577 169.247 161.521 170.867C161.453 171.046 161.329 171.169 161.15 171.238C160.493 171.262 159.861 171.138 159.255 170.867C159.177 170.739 159.149 170.603 159.172 170.455C159.709 170.584 160.245 170.721 160.78 170.867C160.92 170.872 161.03 170.817 161.109 170.702C161.124 169.104 161.165 167.512 161.233 165.926Z" fill="#723127"/>
<path fill-rule="evenodd" clip-rule="evenodd" d="M161.645 173.75C161.755 173.75 161.865 173.75 161.975 173.75C161.828 174.403 161.416 174.801 160.738 174.944C160.271 174.999 159.805 174.999 159.337 174.944C158.748 174.761 158.171 174.555 157.607 174.326C157.558 174.099 157.64 173.961 157.854 173.914C158.394 174.142 158.943 174.348 159.502 174.532C160.385 174.7 161.099 174.44 161.645 173.75Z" fill="#EC9785"/>
<path fill-rule="evenodd" clip-rule="evenodd" d="M151.343 181.738C151.348 181.693 151.375 181.665 151.425 181.655C151.85 181.939 152.317 182.117 152.826 182.191C154.475 182.428 156.124 182.662 157.771 182.891C157.743 183.498 157.689 184.101 157.606 184.703C155.3 184.154 153.212 183.166 151.343 181.738Z" fill="#1A1A1A"/>
<path fill-rule="evenodd" clip-rule="evenodd" d="M135.684 184.867C137.097 187.692 138.237 190.63 139.104 193.679C140.152 197.242 140.908 200.865 141.371 204.55C140.087 204.397 139.249 203.711 138.857 202.491C138.649 202.255 138.497 202.282 138.404 202.573C138.828 203.917 139.735 204.727 141.124 205.003C141.7 205.1 142.277 205.155 142.854 205.167C142.916 205.112 142.944 205.044 142.937 204.961C150.629 205.405 158.321 205.845 166.013 206.279C167.892 206.39 169.101 205.553 169.64 203.767C169.541 203.554 169.391 203.513 169.186 203.644C168.855 205.004 167.99 205.717 166.59 205.785C166.904 199.672 166.108 193.714 164.2 187.914C165.96 188.192 167.732 188.521 169.516 188.903C169.707 188.997 169.858 189.135 169.969 189.314C172.123 193.56 173.592 198.035 174.378 202.738C174.588 204.378 174.684 206.025 174.667 207.679C169.802 209.89 164.912 212.059 159.997 214.185C160.045 213.52 160.347 213.013 160.903 212.662C160.862 212.648 160.821 212.634 160.78 212.62C156.652 214.132 152.599 215.821 148.623 217.685C144.38 219.722 140.149 221.809 135.931 223.944C132.842 225.584 129.902 227.45 127.113 229.544C126.978 229.584 126.841 229.598 126.701 229.585C126.679 229.463 126.706 229.354 126.783 229.256C129.115 227.486 131.56 225.88 134.118 224.438C132.002 222.662 129.557 221.673 126.783 221.473C126.673 221.364 126.673 221.253 126.783 221.144C129.512 221.239 131.943 222.131 134.077 223.82C133.999 219.73 133.889 215.64 133.747 211.55C133.296 210.813 132.884 210.044 132.511 209.244C130.773 206.244 128.314 204.061 125.135 202.697C124.311 202.395 123.487 202.093 122.662 201.791C122.531 201.587 122.572 201.436 122.786 201.338C124.273 201.843 125.715 202.46 127.113 203.191C130.056 204.966 132.227 207.422 133.624 210.562C133.629 210.606 133.656 210.634 133.706 210.644C133.816 209.148 133.816 207.666 133.706 206.197C133.526 202.866 133.072 199.571 132.346 196.314C131.579 192.533 130.631 188.8 129.503 185.114C129.831 184.952 130.188 184.856 130.574 184.826C132.284 184.759 133.987 184.773 135.684 184.867Z" fill="white"/>
<path fill-rule="evenodd" clip-rule="evenodd" d="M135.684 184.867C137.691 184.875 139.697 184.943 141.7 185.073C141.776 185.096 141.83 185.137 141.865 185.197C140.604 186.098 140.151 187.306 140.505 188.82C140.95 189.942 141.678 190.834 142.689 191.497C145.618 193.332 148.819 194.196 152.291 194.091C154.679 194.162 156.918 193.627 159.008 192.485C161.041 190.964 161.288 189.193 159.749 187.173C159.828 187.12 159.924 187.092 160.038 187.091C161.12 187.286 162.205 187.465 163.293 187.626C163.622 187.671 163.925 187.766 164.2 187.914C166.108 193.714 166.904 199.672 166.59 205.785C166.287 205.771 165.984 205.785 165.683 205.826C165.599 205.913 165.586 206.009 165.642 206.114C165.776 206.164 165.899 206.219 166.013 206.279C158.32 205.845 150.628 205.405 142.936 204.961C142.944 204.879 142.916 204.811 142.854 204.756C142.346 204.747 141.852 204.679 141.371 204.55C140.907 200.865 140.152 197.242 139.104 193.679C138.237 190.63 137.097 187.692 135.684 184.867Z" fill="#FEFEFE"/>
<path fill-rule="evenodd" clip-rule="evenodd" d="M129.503 185.114C130.631 188.8 131.579 192.533 132.346 196.314C133.072 199.572 133.525 202.866 133.706 206.197C133.733 207.666 133.706 209.121 133.623 210.562C132.226 207.422 130.056 204.966 127.113 203.191C125.715 202.46 124.272 201.843 122.786 201.338C122.572 201.436 122.531 201.587 122.662 201.791C123.487 202.093 124.311 202.395 125.135 202.697C128.313 204.061 130.773 206.244 132.511 209.244C132.883 210.044 133.295 210.813 133.747 211.55C133.889 215.64 133.999 219.73 134.077 223.82C131.943 222.131 129.512 221.239 126.783 221.144C126.673 221.254 126.673 221.364 126.783 221.473C129.557 221.674 132.001 222.662 134.118 224.438C131.56 225.88 129.115 227.486 126.783 229.256C126.706 229.354 126.679 229.463 126.7 229.585C126.841 229.598 126.978 229.584 127.113 229.544C129.901 227.45 132.841 225.584 135.931 223.944C140.149 221.809 144.38 219.723 148.623 217.685C152.599 215.821 156.651 214.132 160.78 212.62C160.821 212.634 160.862 212.648 160.903 212.662C160.347 213.013 160.044 213.521 159.997 214.185C159.857 216.117 160.091 218.011 160.697 219.868C161.353 222.056 162.273 224.114 163.458 226.044C164.144 227.207 164.995 228.236 166.013 229.132C166.548 229.58 167.152 229.732 167.826 229.585C167.826 229.612 167.826 229.64 167.826 229.668C162.382 234.503 156.393 238.567 149.859 241.856C149.728 241.775 149.591 241.761 149.447 241.815C144.268 244.556 138.746 246.053 132.882 246.303C128.786 246.33 125.022 245.246 121.591 243.05C119.308 241.41 117.742 239.256 116.893 236.585C116.782 236.528 116.685 236.446 116.604 236.338C116.174 235.166 115.899 233.958 115.78 232.715C115.566 222.353 115.387 211.99 115.245 201.626C115.059 198.914 115.458 196.292 116.44 193.761C119.026 188.208 123.38 185.325 129.503 185.114Z" fill="#FEFEFE"/>
<path fill-rule="evenodd" clip-rule="evenodd" d="M178.54 203.067C177.993 204.071 177.608 205.142 177.386 206.279C177.325 206.364 177.269 206.46 177.222 206.567C177.071 206.629 176.933 206.712 176.81 206.815C176.102 207.127 175.389 207.415 174.667 207.679C174.684 206.026 174.588 204.378 174.378 202.738C173.592 198.035 172.123 193.56 169.969 189.314C169.963 189.278 169.977 189.251 170.01 189.232C170.645 189.515 171.263 189.831 171.865 190.179C176.383 193.265 178.608 197.561 178.54 203.067Z" fill="#FEFEFE"/>
<path fill-rule="evenodd" clip-rule="evenodd" d="M183.65 206.279C181.927 208.208 179.949 209.814 177.716 211.097C178.461 212.253 179.478 213.077 180.765 213.567C181.281 213.689 181.804 213.717 182.331 213.65C182.855 213.497 183.349 213.305 183.815 213.073C185.363 214.701 186.902 216.335 188.43 217.973C185.712 219.029 182.992 220.086 180.271 221.144C180.169 221.267 180.169 221.39 180.271 221.515C179.065 222.04 177.829 222.493 176.562 222.873C174.965 223.236 173.372 223.606 171.782 223.985C168.988 224.628 166.213 225.314 163.458 226.044C162.273 224.114 161.353 222.056 160.697 219.867C160.09 218.011 159.857 216.117 159.996 214.185C164.912 212.059 169.802 209.89 174.667 207.679C175.389 207.415 176.102 207.127 176.809 206.814C176.933 206.712 177.071 206.629 177.221 206.567C177.269 206.46 177.324 206.364 177.386 206.279C177.376 206.34 177.39 206.395 177.427 206.444C178.828 205.552 180.215 204.646 181.59 203.726C182.269 203.199 182.983 202.719 183.732 202.285C184.875 202.164 185.438 202.671 185.422 203.809C184.931 204.707 184.341 205.531 183.65 206.279Z" fill="#EBB380"/>
<path fill-rule="evenodd" clip-rule="evenodd" d="M179.447 202.656C180.387 202.583 181.102 202.941 181.59 203.726C180.215 204.646 178.828 205.552 177.428 206.444C177.39 206.395 177.376 206.34 177.387 206.279C177.608 205.142 177.993 204.071 178.54 203.067C178.812 202.863 179.113 202.727 179.447 202.656Z" fill="#1A2949"/>
<path fill-rule="evenodd" clip-rule="evenodd" d="M141.37 204.55C141.852 204.679 142.346 204.747 142.854 204.756C142.916 204.811 142.944 204.879 142.936 204.961C142.944 205.044 142.916 205.112 142.854 205.167C142.276 205.155 141.699 205.1 141.123 205.003C139.734 204.727 138.828 203.917 138.403 202.573C138.497 202.282 138.648 202.255 138.857 202.491C139.248 203.711 140.086 204.397 141.37 204.55Z" fill="#883B0D"/>
<path fill-rule="evenodd" clip-rule="evenodd" d="M166.013 206.279C165.899 206.219 165.776 206.164 165.642 206.114C165.586 206.009 165.599 205.913 165.683 205.826C165.984 205.785 166.287 205.771 166.59 205.785C167.989 205.718 168.855 205.004 169.186 203.644C169.39 203.513 169.541 203.554 169.639 203.767C169.1 205.553 167.891 206.39 166.013 206.279Z" fill="#893E10"/>
</g>
<path fill-rule="evenodd" clip-rule="evenodd" d="M216.889 109.509C217.522 109.192 218.275 108.782 218.972 108.4C219.681 108.01 220.388 107.603 221.083 107.18C222.469 106.327 223.866 105.483 225.192 104.547C227.868 102.703 230.374 100.658 232.63 98.4248C232.925 98.1545 233.176 97.8545 233.45 97.5694L233.853 97.1357L234.056 96.9199L234.157 96.811C234.183 96.7827 234.177 96.789 234.164 96.8053L234.142 96.84C234.041 97.0282 234.125 96.9716 234.164 96.789C234.211 96.6136 234.251 96.3271 234.264 96.0172C234.309 94.7324 234.055 93.1129 233.748 91.5473C233.118 88.3735 232.164 85.1105 231.221 81.9127L233.97 80.7071C235.692 83.7819 237.127 86.9224 238.295 90.3275C238.851 92.0517 239.362 93.7836 239.511 95.9118C239.539 96.4537 239.551 97.0232 239.452 97.6883C239.349 98.3413 239.183 99.1238 238.587 100.011L238.47 100.174L238.378 100.293L238.269 100.426L238.051 100.691L237.614 101.221C237.319 101.57 237.04 101.94 236.726 102.266C234.286 104.975 231.572 107.368 228.675 109.449C227.234 110.502 225.76 111.503 224.23 112.413C223.468 112.874 222.696 113.317 221.911 113.747C221.117 114.189 220.361 114.573 219.459 114.996L216.889 109.509Z" fill="#FFB770"/>
<path fill-rule="evenodd" clip-rule="evenodd" d="M211.764 275.425C210.733 275.631 209.957 275.596 209.657 275.322C209.529 275.205 209.482 275.042 209.513 274.822C209.529 274.704 209.585 274.665 209.63 274.645C209.993 274.481 211.031 274.982 211.764 275.425ZM210.597 275.838C211.144 275.838 211.743 275.726 212.161 275.626C212.216 275.613 212.258 275.569 212.267 275.514C212.277 275.459 212.253 275.403 212.206 275.372C212.003 275.239 210.203 274.077 209.514 274.389C209.405 274.439 209.268 274.547 209.235 274.784C209.19 275.098 209.269 275.348 209.468 275.53C209.72 275.76 210.141 275.838 210.597 275.838Z" fill="#00824A"/>
<path fill-rule="evenodd" clip-rule="evenodd" d="M211.121 273.227C211.236 273.227 211.338 273.267 211.431 273.35C211.815 273.69 211.948 274.648 211.98 275.216C211.416 274.766 210.744 273.806 210.826 273.399C210.839 273.332 210.877 273.253 211.057 273.231C211.078 273.228 211.1 273.227 211.121 273.227ZM212.129 275.63C212.154 275.63 212.178 275.623 212.2 275.61C212.243 275.586 212.269 275.54 212.269 275.489C212.269 275.417 212.261 273.711 211.617 273.14C211.446 272.989 211.247 272.925 211.023 272.953C210.671 272.995 210.576 273.216 210.55 273.344C210.417 274.012 211.494 275.291 212.06 275.612C212.081 275.624 212.105 275.63 212.129 275.63Z" fill="#00824A"/>
<path fill-rule="evenodd" clip-rule="evenodd" d="M211.608 91.8123C210.919 95.3285 209.466 102.451 211.926 104.798C211.926 104.798 210.965 108.365 204.431 108.365C197.246 108.365 200.997 104.798 200.997 104.798C204.919 103.862 204.818 100.952 204.134 98.22L211.608 91.8123Z" fill="#FFB770"/>
<path fill-rule="evenodd" clip-rule="evenodd" d="M199.624 106.215C198.496 106.368 199.455 103.446 199.914 103.144C200.972 102.444 214.666 101.453 214.577 103.115C214.52 103.83 214.184 105.226 213.585 105.7C212.986 106.174 209.469 104.741 199.624 106.215Z" fill="#FAEFD9"/>
<path fill-rule="evenodd" clip-rule="evenodd" d="M201.855 105.232C200.959 105.534 201.044 102.59 201.349 102.236C202.055 101.417 213.138 98.5691 213.468 100.181C213.595 100.876 213.655 102.266 213.275 102.805C212.895 103.344 209.638 102.452 201.855 105.232Z" fill="#FAEFD9"/>
<path fill-rule="evenodd" clip-rule="evenodd" d="M197.732 85.4743C197.645 85.4793 197.557 85.4446 197.498 85.3718C196.705 84.4025 195.675 84.5016 195.665 84.503C195.509 84.5192 195.373 84.4082 195.356 84.2546C195.339 84.1004 195.451 83.9617 195.605 83.9448C195.659 83.9391 196.95 83.8139 197.932 85.0166C198.031 85.1362 198.013 85.313 197.893 85.4114C197.845 85.4503 197.789 85.4708 197.732 85.4743Z" fill="#1A2E35"/>
<path fill-rule="evenodd" clip-rule="evenodd" d="M196.361 88.9358C196.361 88.9358 195.755 91.0632 194.964 92.1386C195.649 92.6629 196.69 92.29 196.69 92.29L196.361 88.9358Z" fill="#FF5551"/>
<path fill-rule="evenodd" clip-rule="evenodd" d="M196.706 88.0769C196.753 88.5523 196.539 88.9626 196.228 88.9938C195.917 89.0242 195.627 88.6634 195.58 88.1872C195.533 87.7118 195.748 87.3015 196.058 87.271C196.369 87.2399 196.66 87.6007 196.706 88.0769Z" fill="#1A2E35"/>
<path fill-rule="evenodd" clip-rule="evenodd" d="M196.198 87.2834L195.023 87.0669C195.023 87.0669 195.697 87.9017 196.198 87.2834Z" fill="#1A2E35"/>
<path fill-rule="evenodd" clip-rule="evenodd" d="M219.02 275.489H213.094L213.559 261.765H219.485L219.02 275.489Z" fill="#FFB770"/>
<path fill-rule="evenodd" clip-rule="evenodd" d="M212.625 274.803H219.282C219.525 274.803 219.722 274.972 219.756 275.208L220.514 280.475C220.593 281.022 220.123 281.539 219.564 281.53C217.243 281.489 216.124 281.353 213.197 281.353C211.395 281.353 208.764 281.54 206.276 281.54C203.844 281.54 203.656 279.081 204.692 278.858C209.337 277.859 210.07 276.482 211.634 275.168C211.917 274.931 212.271 274.803 212.625 274.803Z" fill="#1A2E35"/>
<path fill-rule="evenodd" clip-rule="evenodd" d="M219.487 261.77H213.558L213.322 268.844H219.25L219.487 261.77Z" fill="black"/>
<path fill-rule="evenodd" clip-rule="evenodd" d="M195.442 113.021C191.775 111.585 188.277 110.024 184.794 108.243C181.317 106.463 177.893 104.568 174.604 102.035C173.784 101.391 172.974 100.686 172.183 99.8631C171.985 99.6508 171.788 99.4541 171.595 99.2108C171.39 98.9546 171.237 98.804 170.973 98.4106C170.494 97.7229 170.125 96.7996 170.025 95.8573C169.933 94.9142 170.102 94.0135 170.373 93.2962C170.644 92.5653 170.998 91.9689 171.368 91.451C172.112 90.4153 172.936 89.6498 173.766 88.9607C175.424 87.5888 177.177 86.5913 178.933 85.6595C179.811 85.1933 180.705 84.7737 181.611 84.3875C182.52 83.9948 183.408 83.6304 184.374 83.2979L185.63 86.0239C182.544 87.9688 179.347 90.1061 176.997 92.5038C176.427 93.0973 175.927 93.7185 175.612 94.2654C175.276 94.8222 175.28 95.2396 175.337 95.2071C175.366 95.2064 175.355 95.1943 175.437 95.2757L175.719 95.5785C175.825 95.7044 175.974 95.8346 176.108 95.9641C176.663 96.4834 177.315 97.0034 178.017 97.4986C179.422 98.4983 180.97 99.4336 182.569 100.307C184.164 101.193 185.805 102.041 187.476 102.844C190.809 104.441 194.266 105.978 197.657 107.382L195.442 113.021Z" fill="#FFB770"/>
<path fill-rule="evenodd" clip-rule="evenodd" d="M187.373 84.0917L188.353 81.9664L183.899 80.4198C183.899 80.4198 182.512 84.5954 184.165 86.5226C185.573 86.2984 186.776 85.3864 187.373 84.0917Z" fill="#FFB770"/>
<path fill-rule="evenodd" clip-rule="evenodd" d="M188.354 77.3717L184.793 76.3451L183.899 80.4195L188.354 81.9661V77.3717Z" fill="#FFB770"/>
<path fill-rule="evenodd" clip-rule="evenodd" d="M234.337 82.1724L234.856 77.2059L230.266 78.2848C230.266 78.2848 230.198 82.9401 232.627 83.6822L234.337 82.1724Z" fill="#FFB770"/>
<path fill-rule="evenodd" clip-rule="evenodd" d="M232.645 73.7295L229.654 75.126L230.266 78.285L234.856 77.2061L232.645 73.7295Z" fill="#FFB770"/>
<path fill-rule="evenodd" clip-rule="evenodd" d="M212.54 84.8708C212.756 90.7486 212.973 93.2312 210.317 96.5203C206.322 101.467 199.056 100.447 197.088 94.753C195.317 89.6272 195.261 80.8763 200.752 77.989C206.16 75.1442 212.324 78.993 212.54 84.8708Z" fill="#FFB770"/>
<path fill-rule="evenodd" clip-rule="evenodd" d="M209.979 96.5087C215.749 94.0155 219.544 88.7582 217.942 80.5379C216.409 72.6734 211.1 71.8966 208.907 73.5281C206.714 75.1596 201.247 72.7279 197.966 75.4885C192.282 80.2719 197.656 85.4288 200.455 88.4844C202.127 91.9214 204.317 98.9552 209.979 96.5087Z" fill="#1A2E35"/>
<path fill-rule="evenodd" clip-rule="evenodd" d="M207.583 79.1274C209.53 81.9467 213.265 82.7427 215.924 80.9053C218.585 79.0687 219.163 75.2942 217.216 72.4749C215.269 69.6563 211.534 68.8596 208.874 70.697C206.214 72.5336 205.636 76.3081 207.583 79.1274Z" fill="#B67457"/>
<path fill-rule="evenodd" clip-rule="evenodd" d="M209.082 74.0794C208.249 69.3407 212.733 65.6865 218.729 67.4524C224.724 69.2183 221.553 74.5336 220.324 78.7786C219.094 83.0235 222.321 87.0661 223.669 83.8336C225.018 80.601 222.752 79.6028 222.752 79.6028C222.752 79.6028 229.118 81.2534 223.203 88.4308C217.289 95.6076 211.935 87.683 213.382 83.0058C214.553 79.2257 209.869 78.5592 209.082 74.0794Z" fill="#1A2E35"/>
<path fill-rule="evenodd" clip-rule="evenodd" d="M203.089 75.8698C200.352 74.4414 195.716 73.2875 193.078 77.7255C191.831 79.8247 192.314 82.6702 192.314 82.6702L200.371 83.2065L203.089 75.8698Z" fill="#1A2E35"/>
<path fill-rule="evenodd" clip-rule="evenodd" d="M191.366 81.2785C191.362 81.2785 191.359 81.2785 191.355 81.2785C191.257 81.2721 191.183 81.1879 191.189 81.091C191.197 80.97 191.391 78.1238 193.109 76.3388C197.261 72.0246 202.13 75.603 203.523 76.8029C203.597 76.8666 203.605 76.9784 203.541 77.052C203.477 77.1263 203.366 77.134 203.292 77.0711C201.958 75.9228 197.301 72.4936 193.365 76.5843C191.737 78.2745 191.544 81.0847 191.542 81.113C191.536 81.2063 191.459 81.2785 191.366 81.2785Z" fill="#1A2E35"/>
<path fill-rule="evenodd" clip-rule="evenodd" d="M201.441 88.2514C201.432 89.3962 200.919 90.5175 200.27 91.2774C199.292 92.4207 198.171 91.8575 197.914 90.5897C197.683 89.4485 197.912 87.4789 199.148 86.7884C200.365 86.1077 201.451 86.9426 201.441 88.2514Z" fill="#FFB770"/>
<path fill-rule="evenodd" clip-rule="evenodd" d="M200.168 142.083C200.168 142.083 200.546 183.22 204.114 206.143C206.997 224.658 212.33 267.474 212.33 267.474H220.412C220.412 267.474 221.201 226.139 219.738 207.827C216.036 161.488 225.59 152.825 217.88 142.083H200.168Z" fill="#1A2E35"/>
<path fill-rule="evenodd" clip-rule="evenodd" d="M200.168 142.083C200.168 142.083 200.546 183.22 204.114 206.143C206.997 224.658 212.33 267.474 212.33 267.474H220.412C220.412 267.474 221.201 226.139 219.738 207.827C216.036 161.488 225.59 152.825 217.88 142.083H200.168Z" fill="#00573F"/>
<path fill-rule="evenodd" clip-rule="evenodd" d="M204.415 160.745C207.252 173.162 204.988 192.717 203.439 201.327C201.798 188.252 200.97 171.308 200.559 158.892C202.024 156.515 203.411 156.359 204.415 160.745Z" fill="black"/>
<path fill-rule="evenodd" clip-rule="evenodd" d="M211.225 267.634H221.517L222.059 264.023L211.166 263.654L211.225 267.634Z" fill="#00573F"/>
<path fill-rule="evenodd" clip-rule="evenodd" d="M214.162 107.36C215.13 105.435 220.335 104.223 223.18 104.228L225.309 113.683C225.309 113.683 219.641 122.095 217.284 121.203C214.5 120.151 212.088 111.484 214.162 107.36Z" fill="#007CFF"/>
<path fill-rule="evenodd" clip-rule="evenodd" d="M214.162 107.36C215.13 105.435 220.335 104.223 223.18 104.228L225.309 113.683C225.309 113.683 219.641 122.095 217.284 121.203C214.5 120.151 212.088 111.484 214.162 107.36Z" fill="#FAEFD9"/>
<path fill-rule="evenodd" clip-rule="evenodd" d="M205.021 266.409C205.263 266.012 206.617 265.646 207.65 265.456C206.717 266.406 205.895 266.933 205.415 266.884C205.246 266.866 205.117 266.778 205.019 266.616C204.982 266.552 204.977 266.497 205.005 266.437C205.01 266.428 205.015 266.418 205.021 266.409ZM208.163 265.322C208.188 265.28 208.19 265.227 208.167 265.182C208.139 265.13 208.081 265.1 208.022 265.109C207.724 265.154 205.106 265.57 204.751 266.318C204.683 266.463 204.692 266.616 204.779 266.76C204.923 267 205.127 267.136 205.386 267.163C206.244 267.252 207.483 266.061 208.146 265.344C208.152 265.336 208.158 265.329 208.163 265.322Z" fill="#00824A"/>
<path fill-rule="evenodd" clip-rule="evenodd" d="M205.392 264.431C205.414 264.394 205.45 264.353 205.504 264.304C205.663 264.161 205.849 264.099 206.069 264.114C206.706 264.155 207.427 264.813 207.756 265.147C206.917 265.218 205.559 264.963 205.374 264.599C205.363 264.577 205.337 264.523 205.392 264.431ZM208.162 265.322C208.168 265.312 208.172 265.303 208.176 265.293C208.191 265.247 208.181 265.194 208.149 265.157C208.105 265.105 207.056 263.896 206.088 263.833C205.792 263.813 205.532 263.902 205.317 264.094C205.026 264.354 205.051 264.581 205.123 264.725C205.43 265.332 207.312 265.544 208.071 265.386C208.109 265.377 208.142 265.354 208.162 265.322Z" fill="#00824A"/>
<path fill-rule="evenodd" clip-rule="evenodd" d="M214.339 262.811L208.919 265.219L206.503 260.192L203.347 253.61L202.977 252.844L208.391 250.433L208.81 251.295L211.87 257.669L214.339 262.811Z" fill="#FFB770"/>
<path fill-rule="evenodd" clip-rule="evenodd" d="M211.869 257.669L206.503 260.193L203.347 253.609L208.809 251.294L211.869 257.669Z" fill="black"/>
<path fill-rule="evenodd" clip-rule="evenodd" d="M193.812 142.083C193.812 142.083 176.497 185.123 181.19 205.391C185.431 223.708 204.186 258.397 204.186 258.397L211.438 254.757C211.438 254.757 199.843 212.882 198.585 203.784C196.139 186.084 211.869 161.099 211.869 142.083H193.812Z" fill="#1A2E35"/>
<path fill-rule="evenodd" clip-rule="evenodd" d="M193.812 142.083C193.812 142.083 176.497 185.123 181.19 205.391C185.431 223.708 204.186 258.397 204.186 258.397L211.438 254.757C211.438 254.757 199.843 212.882 198.585 203.784C196.139 186.084 211.869 161.099 211.869 142.083H193.812Z" fill="#00573F"/>
<path fill-rule="evenodd" clip-rule="evenodd" d="M207.952 264.465L213.334 260.547C213.53 260.405 213.788 260.425 213.955 260.596L217.668 264.409C218.053 264.804 217.977 265.499 217.52 265.82C215.62 267.154 214.635 267.701 212.268 269.425C210.812 270.485 207.91 272.828 205.898 274.292C203.932 275.723 202.333 273.845 203.039 273.056C206.206 269.515 206.873 267.326 207.365 265.342C207.453 264.985 207.665 264.674 207.952 264.465Z" fill="#1A2E35"/>
<path fill-rule="evenodd" clip-rule="evenodd" d="M203.72 259.93L213.08 255.649L211.879 251.835L201.855 256.407L203.72 259.93Z" fill="#00573F"/>
<path fill-rule="evenodd" clip-rule="evenodd" d="M198.406 106.877C197.629 104.867 190.867 102.663 187.473 101.893L185.983 113.049C185.983 113.049 191.523 121.012 193.956 120.353C196.829 119.575 200.07 111.184 198.406 106.877Z" fill="#007CFF"/>
<path fill-rule="evenodd" clip-rule="evenodd" d="M198.406 106.877C197.629 104.867 190.867 102.663 187.473 101.893L185.983 113.049C185.983 113.049 191.523 121.012 193.956 120.353C196.829 119.575 200.07 111.184 198.406 106.877Z" fill="#FAEFD9"/>
<path fill-rule="evenodd" clip-rule="evenodd" d="M190.98 106.316C190.98 106.316 188.157 107.31 193.812 142.083H217.88C217.476 132.287 217.465 126.247 222.147 106.144C222.147 106.144 217.104 105.046 211.927 104.797C207.876 104.602 204.558 104.473 200.997 104.797C196.303 105.226 190.98 106.316 190.98 106.316Z" fill="#007CFF"/>
<path fill-rule="evenodd" clip-rule="evenodd" d="M190.98 106.316C190.98 106.316 188.157 107.31 193.812 142.083H217.88C217.476 132.287 217.465 126.247 222.147 106.144C222.147 106.144 217.104 105.046 211.927 104.797C207.876 104.602 204.558 104.473 200.997 104.797C196.303 105.226 190.98 106.316 190.98 106.316Z" fill="#FAEFD9"/>
<path fill-rule="evenodd" clip-rule="evenodd" d="M218.241 140.671L219.326 142.825C219.41 142.992 219.212 143.162 218.934 143.162H193.693C193.476 143.162 193.296 143.056 193.283 142.92L193.065 140.765C193.051 140.616 193.239 140.49 193.476 140.49H217.849C218.028 140.49 218.186 140.563 218.241 140.671Z" fill="#007CFF"/>
<path fill-rule="evenodd" clip-rule="evenodd" d="M218.241 140.671L219.326 142.825C219.41 142.992 219.212 143.162 218.934 143.162H193.693C193.476 143.162 193.296 143.056 193.283 142.92L193.065 140.765C193.051 140.616 193.239 140.49 193.476 140.49H217.849C218.028 140.49 218.186 140.563 218.241 140.671Z" fill="#00573F"/>
<path fill-rule="evenodd" clip-rule="evenodd" d="M214.967 143.396H215.62C215.75 143.396 215.849 143.33 215.84 143.248L215.534 140.448C215.525 140.367 215.412 140.299 215.281 140.299H214.628C214.498 140.299 214.4 140.367 214.408 140.448L214.715 143.248C214.724 143.33 214.837 143.396 214.967 143.396Z" fill="white"/>
<path fill-rule="evenodd" clip-rule="evenodd" d="M199.145 143.396H199.798C199.927 143.396 200.026 143.33 200.018 143.248L199.712 140.448C199.702 140.367 199.589 140.299 199.459 140.299H198.806C198.677 140.299 198.577 140.367 198.586 140.448L198.892 143.248C198.901 143.33 199.015 143.396 199.145 143.396Z" fill="white"/>
<rect x="82.8864" y="167.932" width="33.2273" height="13.6818" rx="6.84091" fill="#212121" fill-opacity="0.08"/>
<g filter="url(#filter1_ddd_2432_1696)">
<path fill-rule="evenodd" clip-rule="evenodd" d="M92.6591 184.545C98.0564 184.545 102.432 180.17 102.432 174.773C102.432 169.375 98.0564 165 92.6591 165C87.2618 165 82.8864 169.375 82.8864 174.773C82.8864 180.17 87.2618 184.545 92.6591 184.545Z" fill="#212121" fill-opacity="0.08"/>
</g>
<path fill-rule="evenodd" clip-rule="evenodd" d="M92.6591 184.545C98.0564 184.545 102.432 180.17 102.432 174.773C102.432 169.375 98.0564 165 92.6591 165C87.2618 165 82.8864 169.375 82.8864 174.773C82.8864 180.17 87.2618 184.545 92.6591 184.545Z" fill="white"/>
<path d="M78.96 190.6H79.8V199H78.96V190.6ZM84.4136 192.856C85.1416 192.856 85.7136 193.08 86.1296 193.528C86.5536 193.968 86.7656 194.564 86.7656 195.316V199H85.9736V195.316C85.9736 194.78 85.8296 194.364 85.5416 194.068C85.2616 193.772 84.8616 193.624 84.3416 193.624C83.7656 193.624 83.2976 193.808 82.9376 194.176C82.5776 194.536 82.3976 195.096 82.3976 195.856V199H81.6056V193H82.3976V193.936C82.8456 193.216 83.5176 192.856 84.4136 192.856ZM93.457 193H94.249V199H93.457V197.824C92.905 198.704 92.097 199.144 91.033 199.144C90.177 199.144 89.445 198.84 88.837 198.232C88.237 197.624 87.937 196.88 87.937 196C87.937 195.12 88.237 194.376 88.837 193.768C89.445 193.16 90.177 192.856 91.033 192.856C92.097 192.856 92.905 193.296 93.457 194.176V193ZM89.413 197.692C89.869 198.148 90.429 198.376 91.093 198.376C91.757 198.376 92.317 198.148 92.773 197.692C93.229 197.228 93.457 196.664 93.457 196C93.457 195.336 93.229 194.776 92.773 194.32C92.317 193.856 91.757 193.624 91.093 193.624C90.429 193.624 89.869 193.856 89.413 194.32C88.957 194.776 88.729 195.336 88.729 196C88.729 196.664 88.957 197.228 89.413 197.692ZM98.7219 199.144C97.8179 199.144 97.0659 198.844 96.4659 198.244C95.8659 197.636 95.5659 196.888 95.5659 196C95.5659 195.112 95.8659 194.368 96.4659 193.768C97.0659 193.16 97.8179 192.856 98.7219 192.856C99.3139 192.856 99.8459 193 100.318 193.288C100.79 193.568 101.134 193.948 101.35 194.428L100.702 194.8C100.542 194.44 100.282 194.156 99.9219 193.948C99.5699 193.732 99.1699 193.624 98.7219 193.624C98.0579 193.624 97.4979 193.856 97.0419 194.32C96.5859 194.776 96.3579 195.336 96.3579 196C96.3579 196.664 96.5859 197.228 97.0419 197.692C97.4979 198.148 98.0579 198.376 98.7219 198.376C99.1699 198.376 99.5699 198.272 99.9219 198.064C100.274 197.848 100.55 197.56 100.75 197.2L101.41 197.584C101.162 198.064 100.798 198.444 100.318 198.724C99.8379 199.004 99.3059 199.144 98.7219 199.144ZM105.727 193.768H103.999V197.404C103.999 197.732 104.063 197.968 104.191 198.112C104.319 198.248 104.511 198.32 104.767 198.328C105.023 198.328 105.343 198.32 105.727 198.304V199C104.887 199.128 104.255 199.068 103.831 198.82C103.415 198.572 103.207 198.1 103.207 197.404V193.768H101.947V193H103.207V191.56L103.999 191.32V193H105.727V193.768ZM107.851 191.56C107.739 191.672 107.603 191.728 107.443 191.728C107.283 191.728 107.147 191.672 107.035 191.56C106.923 191.448 106.867 191.312 106.867 191.152C106.867 190.992 106.923 190.856 107.035 190.744C107.147 190.632 107.283 190.576 107.443 190.576C107.603 190.576 107.739 190.632 107.851 190.744C107.963 190.856 108.019 190.992 108.019 191.152C108.019 191.312 107.963 191.448 107.851 191.56ZM107.047 199V193H107.839V199H107.047ZM113.84 193H114.68L112.22 199H111.26L108.8 193H109.64L111.74 198.172L113.84 193ZM120.431 198.244C119.823 198.844 119.079 199.144 118.199 199.144C117.319 199.144 116.571 198.844 115.955 198.244C115.347 197.636 115.043 196.888 115.043 196C115.043 195.112 115.347 194.368 115.955 193.768C116.571 193.16 117.319 192.856 118.199 192.856C119.079 192.856 119.823 193.16 120.431 193.768C121.047 194.368 121.355 195.112 121.355 196C121.355 196.888 121.047 197.636 120.431 198.244ZM116.519 197.692C116.975 198.148 117.535 198.376 118.199 198.376C118.863 198.376 119.423 198.148 119.879 197.692C120.335 197.228 120.562 196.664 120.562 196C120.562 195.336 120.335 194.776 119.879 194.32C119.423 193.856 118.863 193.624 118.199 193.624C117.535 193.624 116.975 193.856 116.519 194.32C116.063 194.776 115.835 195.336 115.835 196C115.835 196.664 116.063 197.228 116.519 197.692Z" fill="#4D4851"/>
<mask id="mask1_2432_1696" style="mask-type:alpha" maskUnits="userSpaceOnUse" x="5" y="94" width="61" height="61">
<circle cx="35.5" cy="124.5" r="30.5" fill="#D9D9D9"/>
</mask>
<g mask="url(#mask1_2432_1696)">
<rect x="5" y="93" width="61" height="70" fill="#00AFAA" fill-opacity="0.34"/>
<path fill-rule="evenodd" clip-rule="evenodd" d="M35.8907 116.039C38.7747 108.949 37.7386 100.313 29.5582 98.3796C23.1855 96.7381 16.6891 100.573 15.0476 106.945C14.7546 108.083 14.6309 109.259 14.6819 110.434C15.0067 118.166 20.0943 124.606 11.1793 130.212C2.2644 135.818 3.21543 152.712 20.4577 149.449C37.7 146.186 28.383 137.318 28.383 137.318C28.383 137.318 24.1536 140.766 22.7928 137.256C21.0685 132.709 32.5505 124.336 35.8907 116.039Z" fill="#1A2E35"/>
<path fill-rule="evenodd" clip-rule="evenodd" d="M5.55074 139.297L5.17188 139.212C6.32394 134.055 8.13321 132.725 10.043 131.318C11.9528 129.91 13.7621 128.573 15.2234 123.501C15.9116 121.111 15.4786 118.467 15.0533 115.916C14.5121 112.66 13.9554 109.289 15.6332 106.274L15.9657 106.467C14.3574 109.359 14.9064 112.653 15.4322 115.854C15.8652 118.452 16.3136 121.135 15.5946 123.586C14.1023 128.782 12.1538 130.212 10.275 131.604C8.3961 132.996 6.67188 134.287 5.55074 139.297Z" fill="#1A2E35"/>
<path fill-rule="evenodd" clip-rule="evenodd" d="M51.8806 144.176C59.6821 147.655 59.6125 159.346 59.6125 159.346L51.3935 164.287C51.3935 164.287 45.2079 155.132 45.6718 150.972C46.128 146.635 47.4579 142.22 51.8806 144.176Z" fill="#C9C1A6"/>
<path fill-rule="evenodd" clip-rule="evenodd" d="M53.1098 154.15C50.9758 151.993 49.097 154.483 47.3805 157.243C48.558 159.684 49.8988 162.042 51.3934 164.302L54.7645 162.276C55.4294 159.702 55.2361 156.315 53.1098 154.15H45.2385Z" fill="#A09366"/>
<path fill-rule="evenodd" clip-rule="evenodd" d="M55.0972 150.338C54.6178 155.557 52.8858 165.802 47.8214 185.82L20.0328 183.415C21.3704 172.985 21.9967 166.227 19.3833 146.48C19.0407 143.85 20.8956 141.441 23.5253 141.098C23.6335 141.085 23.7426 141.074 23.8523 141.068C25.8549 140.959 28.2364 140.89 30.6255 140.982C34.8518 141.046 39.0688 141.41 43.2441 142.073C45.6951 142.513 48.3085 143.147 50.4348 143.704C53.4 144.481 55.3709 147.286 55.0972 150.338Z" fill="#C9C1A6"/>
<path fill-rule="evenodd" clip-rule="evenodd" d="M20.0946 152.264C20.4503 155.356 20.7132 158.117 20.8678 160.591C23.4271 160.367 25.3137 157.56 25.507 151.691C24.5482 148.854 22.2673 149.882 20.0946 152.264Z" fill="#A09366"/>
<path fill-rule="evenodd" clip-rule="evenodd" d="M22.4217 141.508C17.1176 142.9 11.999 155.758 11.999 155.758L18.865 162.037C18.865 162.037 29.6511 152.202 29.2877 147.764C28.9861 143.99 26.682 140.379 22.4217 141.508Z" fill="#C9C1A6"/>
<path fill-rule="evenodd" clip-rule="evenodd" d="M30.6253 140.735C29.6541 140.934 28.6629 141.024 27.6717 141.006C27.4629 144.825 29.9139 148.514 35.9371 153.462C37.383 148.954 40.5763 147.98 40.5763 147.98L30.6253 140.735Z" fill="#A09366"/>
<path fill-rule="evenodd" clip-rule="evenodd" d="M43.2441 141.949C43.2441 141.949 43.9477 142.049 45.6255 142.436C46.7466 144.16 48.2003 149.472 44.8987 153.261C43.6152 148.622 40.5533 148.034 40.5533 148.034L43.2441 141.949Z" fill="#A09366"/>
<path fill-rule="evenodd" clip-rule="evenodd" d="M30.6253 140.735H27.1923C26.0712 142.459 29.9294 147.238 35.9449 152.186C37.3908 147.678 40.5841 147.949 40.5841 147.949L30.6253 140.735Z" fill="white"/>
<path fill-rule="evenodd" clip-rule="evenodd" d="M43.2441 141.949C43.2441 141.949 43.9477 142.049 45.6255 142.436C46.7466 144.16 49.1667 148.83 45.8652 152.588C44.5817 147.949 40.5533 148.011 40.5533 148.011L43.2441 141.949Z" fill="white"/>
<path fill-rule="evenodd" clip-rule="evenodd" d="M33.1076 126.856C33.556 130.985 33.7029 138.454 30.6256 140.959C30.6256 140.959 32.2261 145.598 40.5534 148.011C45.5638 145.119 43.2442 142.049 43.2442 142.049C38.8138 140.58 39.2235 137.232 40.2828 134.14L33.1076 126.856Z" fill="#FFC4BE"/>
<path fill-rule="evenodd" clip-rule="evenodd" d="M36.0301 129.833L40.2827 134.14C40.0221 134.856 39.8257 135.593 39.6951 136.343C37.9863 135.949 35.5121 134.171 35.4889 132.346C35.5206 131.483 35.7038 130.632 36.0301 129.833Z" fill="black"/>
<path fill-rule="evenodd" clip-rule="evenodd" d="M42.5094 110.356C43.8625 108.864 46.5455 110.766 47.5352 114.423C49.0197 119.836 45.061 120.222 42.9888 117.516C40.9166 114.81 41.3805 111.601 42.5094 110.356Z" fill="#1A2E35"/>
<path fill-rule="evenodd" clip-rule="evenodd" d="M46.7001 119.859C48.0578 120.328 49.3413 120.99 50.5119 121.823C49.8392 120.184 49.2362 119.186 46.7001 119.859Z" fill="#1A2E35"/>
<path fill-rule="evenodd" clip-rule="evenodd" d="M47.4812 120.114C48.5799 119.895 49.7049 119.833 50.8214 119.929C49.7235 119.086 48.9271 118.668 47.4812 120.114Z" fill="#1A2E35"/>
<path fill-rule="evenodd" clip-rule="evenodd" d="M29.4579 120.408C31.1822 127.003 31.7775 129.833 35.8136 132.593C41.8987 136.753 49.6229 133.196 49.909 126.215C50.1641 119.936 47.3033 110.209 40.244 108.833C35.2221 107.813 30.3247 111.058 29.3056 116.08C29.0141 117.515 29.0667 118.998 29.4579 120.408Z" fill="#FFC4BE"/>
<path fill-rule="evenodd" clip-rule="evenodd" d="M32.6435 111.709L30.7337 113.928C29.5414 115.293 27.4732 115.445 26.0945 114.269C24.7275 113.079 24.5729 111.01 25.7466 109.629L27.6564 107.418C28.8487 106.056 30.9131 105.9 32.2956 107.07C33.6579 108.262 33.8134 110.327 32.6435 111.709Z" fill="white"/>
<path fill-rule="evenodd" clip-rule="evenodd" d="M34.4063 114.184L32.0867 115.344C30.105 116.314 27.7112 115.503 26.7284 113.527C25.7573 111.543 26.5684 109.146 28.5454 108.161L30.865 107.001C32.8514 106.03 35.2483 106.845 36.231 108.826C37.2006 110.81 36.3856 113.203 34.4063 114.184Z" fill="#00824A"/>
<path fill-rule="evenodd" clip-rule="evenodd" d="M31.4374 125.341C31.4374 125.341 36.2003 124.25 34.1745 117.284C33.9008 116.314 34.466 115.306 35.4356 115.032C35.5841 114.991 35.7372 114.967 35.891 114.964C41.257 114.817 46.2751 113.696 45.5637 110.588C44.6745 106.66 31.306 103.629 28.8781 111.493C24.1385 112.598 23.9606 121.939 31.4374 125.341Z" fill="#1A2E35"/>
<path fill-rule="evenodd" clip-rule="evenodd" d="M31.4603 123.965C32.8181 124.434 34.1016 125.096 35.2722 125.928C34.5995 124.305 33.9964 123.307 31.4603 123.965Z" fill="#1A2E35"/>
<path fill-rule="evenodd" clip-rule="evenodd" d="M32.2415 124.235C33.3402 124.016 34.4652 123.954 35.5817 124.05C34.4915 123.222 33.6951 122.797 32.2415 124.235Z" fill="#1A2E35"/>
<path fill-rule="evenodd" clip-rule="evenodd" d="M28.3755 125.588C28.9925 126.753 30.0464 127.626 31.3059 128.016C32.9838 128.519 33.8497 127.034 33.4168 125.434C33.0224 123.996 31.6771 122.009 29.9838 122.202C28.7567 122.371 27.9 123.504 28.0701 124.73C28.1119 125.034 28.2155 125.326 28.3755 125.588Z" fill="#FFC4BE"/>
<path fill-rule="evenodd" clip-rule="evenodd" d="M40.6383 120.184C40.7466 120.725 41.1254 121.111 41.4734 121.042C41.8213 120.972 42.0301 120.47 41.9295 119.928C41.829 119.387 41.4424 119.001 41.0868 119.07C40.7311 119.14 40.5301 119.635 40.6383 120.184Z" fill="#1A2E35"/>
<path fill-rule="evenodd" clip-rule="evenodd" d="M46.7854 118.97C46.8937 119.519 47.2648 119.898 47.6205 119.828C47.9761 119.758 48.1772 119.264 48.0689 118.722C47.9607 118.181 47.5895 117.794 47.2339 117.864C46.8782 117.934 46.6772 118.428 46.7854 118.97Z" fill="#1A2E35"/>
<path fill-rule="evenodd" clip-rule="evenodd" d="M47.0867 117.926L48.3161 117.292C48.3161 117.292 47.8444 118.444 47.0867 117.926Z" fill="#1A2E35"/>
<path fill-rule="evenodd" clip-rule="evenodd" d="M44.6746 120.33C45.4021 121.477 46.2844 122.518 47.2957 123.423C46.8179 123.947 46.132 124.23 45.4246 124.196L44.6746 120.33Z" fill="#FF857F"/>
<path fill-rule="evenodd" clip-rule="evenodd" d="M42.9114 126.756C41.7679 126.77 40.6606 126.347 39.8186 125.573C39.7668 125.519 39.7668 125.434 39.8186 125.379C39.8728 125.328 39.9578 125.328 40.0119 125.379C41.0673 126.31 42.5039 126.681 43.8779 126.377C43.9506 126.364 44.0202 126.412 44.0326 126.485C44.0457 126.558 43.997 126.627 43.9243 126.64C43.5918 126.715 43.2524 126.753 42.9114 126.756Z" fill="#1A2E35"/>
<path fill-rule="evenodd" clip-rule="evenodd" d="M36.9502 118.073C36.9014 118.071 36.8535 118.057 36.811 118.034C36.6826 117.957 36.6416 117.791 36.7182 117.663C37.237 116.781 38.1502 116.205 39.1692 116.117C39.3177 116.117 39.4391 116.232 39.4476 116.379C39.4522 116.529 39.3339 116.654 39.1847 116.658C38.3434 116.751 37.5981 117.242 37.1821 117.98C37.1249 118.047 37.0383 118.081 36.9502 118.073Z" fill="#1A2E35"/>
<path fill-rule="evenodd" clip-rule="evenodd" d="M48.4941 115.892C48.4508 115.904 48.406 115.904 48.3627 115.892C47.6312 115.461 46.7382 115.404 45.958 115.738C45.815 115.81 45.6402 115.753 45.5676 115.61C45.4949 115.467 45.5521 115.292 45.6951 115.22C46.6346 114.794 47.7232 114.855 48.6101 115.382C48.7369 115.452 48.784 115.612 48.7145 115.739C48.7129 115.741 48.7121 115.743 48.7106 115.746C48.6712 115.831 48.5877 115.887 48.4941 115.892Z" fill="#1A2E35"/>
<path fill-rule="evenodd" clip-rule="evenodd" d="M40.9399 119.132L42.1693 118.498C42.1693 118.498 41.6977 119.65 40.9399 119.132Z" fill="#1A2E35"/>
</g>
<defs>
<filter id="filter0_ddd_2432_1696" x="87" y="112" width="26" height="26" filterUnits="userSpaceOnUse" color-interpolation-filters="sRGB">
<feFlood flood-opacity="0" result="BackgroundImageFix"/>
<feColorMatrix in="SourceAlpha" type="matrix" values="0 0 0 0 0 0 0 0 0 0 0 0 0 0 0 0 0 0 127 0" result="hardAlpha"/>
<feOffset dy="1"/>
<feGaussianBlur stdDeviation="1.5"/>
<feColorMatrix type="matrix" values="0 0 0 0 0 0 0 0 0 0 0 0 0 0 0 0 0 0 0.2 0"/>
<feBlend mode="normal" in2="BackgroundImageFix" result="effect1_dropShadow_2432_1696"/>
<feColorMatrix in="SourceAlpha" type="matrix" values="0 0 0 0 0 0 0 0 0 0 0 0 0 0 0 0 0 0 127 0" result="hardAlpha"/>
<feOffset dy="2"/>
<feGaussianBlur stdDeviation="0.5"/>
<feColorMatrix type="matrix" values="0 0 0 0 0 0 0 0 0 0 0 0 0 0 0 0 0 0 0.12 0"/>
<feBlend mode="normal" in2="effect1_dropShadow_2432_1696" result="effect2_dropShadow_2432_1696"/>
<feColorMatrix in="SourceAlpha" type="matrix" values="0 0 0 0 0 0 0 0 0 0 0 0 0 0 0 0 0 0 127 0" result="hardAlpha"/>
<feOffset dy="1"/>
<feGaussianBlur stdDeviation="0.5"/>
<feColorMatrix type="matrix" values="0 0 0 0 0 0 0 0 0 0 0 0 0 0 0 0 0 0 0.14 0"/>
<feBlend mode="normal" in2="effect2_dropShadow_2432_1696" result="effect3_dropShadow_2432_1696"/>
<feBlend mode="normal" in="SourceGraphic" in2="effect3_dropShadow_2432_1696" result="shape"/>
</filter>
<filter id="filter1_ddd_2432_1696" x="79.8864" y="163" width="25.5454" height="25.5455" filterUnits="userSpaceOnUse" color-interpolation-filters="sRGB">
<feFlood flood-opacity="0" result="BackgroundImageFix"/>
<feColorMatrix in="SourceAlpha" type="matrix" values="0 0 0 0 0 0 0 0 0 0 0 0 0 0 0 0 0 0 127 0" result="hardAlpha"/>
<feOffset dy="1"/>
<feGaussianBlur stdDeviation="1.5"/>
<feColorMatrix type="matrix" values="0 0 0 0 0 0 0 0 0 0 0 0 0 0 0 0 0 0 0.2 0"/>
<feBlend mode="normal" in2="BackgroundImageFix" result="effect1_dropShadow_2432_1696"/>
<feColorMatrix in="SourceAlpha" type="matrix" values="0 0 0 0 0 0 0 0 0 0 0 0 0 0 0 0 0 0 127 0" result="hardAlpha"/>
<feOffset dy="2"/>
<feGaussianBlur stdDeviation="0.5"/>
<feColorMatrix type="matrix" values="0 0 0 0 0 0 0 0 0 0 0 0 0 0 0 0 0 0 0.12 0"/>
<feBlend mode="normal" in2="effect1_dropShadow_2432_1696" result="effect2_dropShadow_2432_1696"/>
<feColorMatrix in="SourceAlpha" type="matrix" values="0 0 0 0 0 0 0 0 0 0 0 0 0 0 0 0 0 0 127 0" result="hardAlpha"/>
<feOffset dy="1"/>
<feGaussianBlur stdDeviation="0.5"/>
<feColorMatrix type="matrix" values="0 0 0 0 0 0 0 0 0 0 0 0 0 0 0 0 0 0 0.14 0"/>
<feBlend mode="normal" in2="effect2_dropShadow_2432_1696" result="effect3_dropShadow_2432_1696"/>
<feBlend mode="normal" in="SourceGraphic" in2="effect3_dropShadow_2432_1696" result="shape"/>
</filter>
</defs>
</svg>
